<svg id="Capa_1" data-name="Capa 1" xmlns="http://www.w3.org/2000/svg" width="831.636" height="319.343" viewBox="0 0 831.636 319.343"><defs><style>.cls-1{fill:#fff;}</style></defs><path class="cls-1" d="M109.132,64.827l-.185.185a1.662,1.662,0,0,1,0,1.847,18.731,18.731,0,0,1-1.108,1.848c-.249.617-.462,1.172-.647,1.662a15.446,15.446,0,0,1-.646,1.478q-.374,1.664-1.109,1.847a1.816,1.816,0,0,0-.924,2.587q0,1.294-1.847,2.4-1.294.372-2.494.831a22.968,22.968,0,0,1-2.679.831,3.5,3.5,0,0,1-3.325-1.109q.367-1.107.554-1.846a11.265,11.265,0,0,1,.739-2.217,10.526,10.526,0,0,1,.462-1.663,10.779,10.779,0,0,0,.462-1.663,6.585,6.585,0,0,0,.184-3.51,4.141,4.141,0,0,0-.369-1.848,5.667,5.667,0,0,1-1.293-3.879,5.578,5.578,0,0,0-.924-3.695,13.808,13.808,0,0,0-3.51-3.141A7.873,7.873,0,0,1,88.626,54.3c-.37-.245-.71-.49-1.016-.739s-.647-.491-1.017-.739a.545.545,0,0,0-.369-.184l-.369-.37a5.96,5.96,0,0,1-1.293-.647,5.15,5.15,0,0,0-.74-.462c-.617-.369-1.2-.739-1.754-1.108a18.367,18.367,0,0,0-1.94-1.109q-.927-.367-1.848-.739a12.726,12.726,0,0,1-1.847-.923A16.665,16.665,0,0,0,72,46.169q-4.251-.369-5.911,1.847l-.555.554-.554.554A3.344,3.344,0,0,1,63.5,50.232a.534.534,0,0,0-.184.371l-.185.184a6.639,6.639,0,0,1-1.478,2.4.164.164,0,0,1-.185.185v.185a1.572,1.572,0,0,1,0,1.478,2.656,2.656,0,0,0-.462.554,2.676,2.676,0,0,1-.461.555A8.805,8.805,0,0,0,58.7,59.654l-.739,2.217a11.312,11.312,0,0,0-.739,2.217,8.124,8.124,0,0,1-.092,1.293,7.716,7.716,0,0,0-.093,1.294v1.108a.738.738,0,0,0,.37.738A1.765,1.765,0,0,1,58.144,70q.182.739.277,1.293a6.789,6.789,0,0,1,.092,1.108A3.557,3.557,0,0,1,58.7,73.51a2.034,2.034,0,0,0,.185.924A8.409,8.409,0,0,1,59.068,76a5.671,5.671,0,0,0,.184,1.386l.554,2.216c.122.618.214,1.109.278,1.478a8.16,8.16,0,0,1,.092,1.293,1.991,1.991,0,0,1,.37,1.108,2.042,2.042,0,0,0,.184.924,4.881,4.881,0,0,1,.185,1.479,1.383,1.383,0,0,1,0,1.662v.924a1.057,1.057,0,0,1,.369,1.108V91.06a3.965,3.965,0,0,0,0,2.4,7.154,7.154,0,0,1,.278,1.293,11.874,11.874,0,0,0,.277,1.477,7.723,7.723,0,0,0,.184,1.848v2.032a4.135,4.135,0,0,1,.185,1.293q-.372.372.37.924v.554q-.555.927.554,2.771v.74a1.652,1.652,0,0,0,.185,2.4,6.121,6.121,0,0,1,.923,1.848,6.507,6.507,0,0,0,.555,2.586c.245.248.554.554.923.923a5,5,0,0,1,.924,1.293,3.614,3.614,0,0,1,2.032,2.956c.245.248.245.37,0,.37v.739c.245.248.43.369.554.369a1.6,1.6,0,0,1,.277.37,1.365,1.365,0,0,0,.277.369.546.546,0,0,1,.185.369.74.74,0,0,0,.185.555.97.97,0,0,0,.369.462c.122.063.185.216.185.462a1.487,1.487,0,0,0,.739,1.108c.615.248.739.554.37.924A1.263,1.263,0,0,0,72,125.976a1.224,1.224,0,0,1,.278.461,1.762,1.762,0,0,0,.461.647c.246.618.491,1.2.739,1.755s.491,1.14.739,1.755a14.764,14.764,0,0,0,.832,1.755,6.946,6.946,0,0,0,1.2,1.57l.185.37a.364.364,0,0,0,.093.277.39.39,0,0,1,.092.277v.739a7.025,7.025,0,0,1,2.032,2.772,10.435,10.435,0,0,1,.554,1.292c.121.37.306.864.554,1.478A10.673,10.673,0,0,0,81.79,145a1.257,1.257,0,0,1,.37.924c.245.248.369.432.369.553a1.055,1.055,0,0,0,.37.74q.181.372.554,1.108a1.678,1.678,0,0,1,.462.739,1.592,1.592,0,0,0,.462.739,2.521,2.521,0,0,1,.554.832,2.39,2.39,0,0,0,.554.831.74.74,0,0,0,.185.553,2.278,2.278,0,0,1,.369.555,1.512,1.512,0,0,1,.185.647,1.474,1.474,0,0,0,.185.646,1.678,1.678,0,0,1,.462.739,3.415,3.415,0,0,0,.277.739,2.85,2.85,0,0,1-.185,1.663,1.994,1.994,0,0,0,.092.646,2.073,2.073,0,0,1,.093.647,1.246,1.246,0,0,0,.369.924c.246.248.462.461.647.646a2.5,2.5,0,0,1,.462.646A3.249,3.249,0,0,0,89,162a3.384,3.384,0,0,0,1.293,2.032,1.248,1.248,0,0,0-.369.923,2.155,2.155,0,0,1-.277.462,2.029,2.029,0,0,0-.277.462q2.585,1.109,2.586,3.325a.852.852,0,0,0,.554.924,3.871,3.871,0,0,1,.185,1.478q0-.369-.554.37a5.9,5.9,0,0,1,1.662.553c.37,0,.37.186,0,.555a4.432,4.432,0,0,0,.37,2.217l.554,2.217v1.108a1.281,1.281,0,0,0,.369,1.293q1.291.555.555,1.848a4.489,4.489,0,0,0-.555,1.477q0,.555,1.109,1.663l.739.369a2.242,2.242,0,0,0,0,2.956,2.969,2.969,0,0,1,.369,2.587q-.554,1.664.185,2.4a2.337,2.337,0,0,1,0,1.293,1.3,1.3,0,0,0,.185,1.108,3.95,3.95,0,0,1,.277.739,1.605,1.605,0,0,0,.462.739c0,.249.245.494.739.739a3.671,3.671,0,0,0,0,3.88,4.063,4.063,0,0,1,.554,2.4,6.135,6.135,0,0,1,.37,1.848,6.01,6.01,0,0,0,.369,1.846,4,4,0,0,1,0,4.065,1.994,1.994,0,0,0,.092.646,1.556,1.556,0,0,1,.093.462q1.29.927.554,1.663c-.369.37-.309.739.185,1.109a4.42,4.42,0,0,1,.184,2.77,1.849,1.849,0,0,0,.37,2.217.532.532,0,0,1-.37.186.163.163,0,0,0-.184.184l-.37.369a2.11,2.11,0,0,1-.554.369q1.476,2.037,1.108,3.511a4.772,4.772,0,0,0,.185,1.478,1.62,1.62,0,0,0,.185.739v1.108a1.15,1.15,0,0,1-.462.278,4.121,4.121,0,0,0-.831.462c-.249,0-.494.248-.739.738a3.234,3.234,0,0,0-.37.924c0,.248-.248.618-.739,1.108-.369.248-.369.434,0,.555a6.869,6.869,0,0,1,.185,2.586,3.751,3.751,0,0,0-.185,1.2v1.2a7.816,7.816,0,0,1-.369,1.294l-.739.738c-.124.371-.124.616,0,.74.121.369-.064.614-.554.739q-.927.368-.185,1.108c.245.369.245.675,0,.923a2.717,2.717,0,0,0-.739,1.294,2.873,2.873,0,0,1-.739.831,6.938,6.938,0,0,0-1.108,1.2,2.3,2.3,0,0,1-.278.462,1.969,1.969,0,0,0-.277.461.835.835,0,0,1-.092.37.792.792,0,0,0-.093.369c0,.246-.248.616-.738,1.109-.248.245-.37.431-.37.555l-.923.369q-.741.736-.74.369c0,.122-.184.277-.554.462a8.649,8.649,0,0,0-1.293.832l-.554.369a1.471,1.471,0,0,1-.554.184.163.163,0,0,0-.185.185.546.546,0,0,1-.369.185A3.717,3.717,0,0,0,85.116,254a6.528,6.528,0,0,1-2.217,2.587,4.36,4.36,0,0,1-1.109.831,3.464,3.464,0,0,0-.923.646c-.37.247-.711.492-1.016.74a3.951,3.951,0,0,0-.832.924,4.465,4.465,0,0,0-1.847.739,2.8,2.8,0,0,1-1.478.923,1.247,1.247,0,0,0-.924.37,7.959,7.959,0,0,1-2.032,1.293,8.7,8.7,0,0,1-1.847,1.108,5.968,5.968,0,0,1-1.478,1.109q-.927.368-2.125.831t-2.309,1.016q-1.109.368-2.217.831t-2.032.831a7.526,7.526,0,0,1-2.586.555,2.979,2.979,0,0,1-1.847.738,3.521,3.521,0,0,1-.832.278,1.571,1.571,0,0,0-.831.462,4.242,4.242,0,0,0-1.663.554q-.927.181-1.663.277a12.061,12.061,0,0,0-1.477.277,7.444,7.444,0,0,1-1.478.555,12.4,12.4,0,0,0-1.663.553,2.059,2.059,0,0,0-1.663-1.108,3.591,3.591,0,0,1-2.77,0q-1.11-.186-2.772-.554a.532.532,0,0,0-.369-.184,1.452,1.452,0,0,1-.554-.186,1.807,1.807,0,0,1-1.294-.369q-.925-.372-1.847-.831a7.258,7.258,0,0,0-1.848-.647c-.738-.249-1.417-.494-2.031-.739s-1.294-.494-2.033-.739a1.248,1.248,0,0,0-.923-.369,1.433,1.433,0,0,1-1.293-.555q-.927-.372-1.94-.738a6.792,6.792,0,0,1-1.755-.924c-.618-.494-1.2-.924-1.756-1.293s-1.14-.739-1.754-1.108l-6.466-4.989-.37-.369a2.127,2.127,0,0,1-.369-.554,1.787,1.787,0,0,0-.647-.462,1.182,1.182,0,0,1-.461-.278,29.2,29.2,0,0,1-2.956-3.879q-.741-1.108-1.386-2.032A7.322,7.322,0,0,1,6.417,247.9c-.248-.739-.462-1.449-.647-2.125s-.4-1.384-.646-2.124a16.145,16.145,0,0,1-.647-2.032,15.376,15.376,0,0,0-.646-2.032c-.121-.618-.246-1.2-.37-1.755s-.245-1.138-.37-1.755a13.5,13.5,0,0,1-.554-1.663,12.544,12.544,0,0,0-.554-1.662,6.955,6.955,0,0,1-.554-2.772q-.181-.923-.277-1.477c-.061-.37-.153-.8-.277-1.294a3.875,3.875,0,0,1,.185-1.478v-1.108a9.5,9.5,0,0,0,.554-2.956q.372-1.845.739-3.141a1.3,1.3,0,0,1,.092-.553.8.8,0,0,0,.092-.37,7.4,7.4,0,0,0,1.294-2.956,15.473,15.473,0,0,0,.554-1.57,8.307,8.307,0,0,1,.554-1.386l.37-.923q.739-.922,1.477-1.94t1.294-1.939a26.363,26.363,0,0,1,1.57-2.125q.831-1.014,1.755-2.124.923-.924,1.847-1.848t2.032-1.848a19.034,19.034,0,0,1,2.033-1.755,18.961,18.961,0,0,0,2.032-1.755,6.588,6.588,0,0,0,1.293-.831,13.8,13.8,0,0,1,1.108-.832,11.942,11.942,0,0,0,1.478-1.015,13.8,13.8,0,0,1,1.109-.831,12.5,12.5,0,0,0,1.293-1.109,4.924,4.924,0,0,1,1.293-.923,30.952,30.952,0,0,0,2.956-1.848,12.464,12.464,0,0,0,1.57-.739,12.841,12.841,0,0,1,1.57-.739,13.455,13.455,0,0,1,1.571-1.016q.831-.459,1.57-.831a16.045,16.045,0,0,0,2.309-1.2,16.184,16.184,0,0,1,2.309-1.2A18.032,18.032,0,0,1,45.4,180.1a6.479,6.479,0,0,1,2.4-.923,7.89,7.89,0,0,1,1.109-.278c.37-.06.86-.153,1.478-.277a4.142,4.142,0,0,0,.923.555,1.077,1.077,0,0,1,.74.369,4.5,4.5,0,0,1-.185,1.847,5.424,5.424,0,0,0-.462.554,3.3,3.3,0,0,1-.832.739L49.091,183.8a12.84,12.84,0,0,1,.74,1.293l-.37.184a5.334,5.334,0,0,1-2.771,2.4,7.294,7.294,0,0,0-1.755,1.015,17.631,17.631,0,0,1-1.755,1.2,3.1,3.1,0,0,1-.923.461,1.645,1.645,0,0,0-.74.462,6.8,6.8,0,0,1-1.662,1.293,11.218,11.218,0,0,0-3.326,2.217c-.493.369-1.016.771-1.57,1.2a17.487,17.487,0,0,0-1.57,1.386l-.554.555a2.1,2.1,0,0,1-.555.369,4.155,4.155,0,0,0-1.293,1.016c-.369.433-.739.832-1.108,1.2a9.3,9.3,0,0,0-1.016,1.2q-.464.648-1.016,1.386a3.589,3.589,0,0,0-.832,1.293,15.183,15.183,0,0,1-.646,1.477v.555c.615.248.739.553.369.924a1.062,1.062,0,0,1-.369.738,6.023,6.023,0,0,0-.832,1.478c-.184.494-.34.863-.461,1.109a1.148,1.148,0,0,1-.185.646,3.545,3.545,0,0,0-.37,1.016,11,11,0,0,0-.923,4.249,17.533,17.533,0,0,0-.185,2.494v2.124a4.034,4.034,0,0,0,.739,2.587q.181.739.277,1.293a6.9,6.9,0,0,1,.092,1.108,9.764,9.764,0,0,0,.185,2.217,2.6,2.6,0,0,0,.37,1.479,3.38,3.38,0,0,1,.369,2.031c0,.37.121.555.37.555a6.234,6.234,0,0,1,1.108,3.509,6.233,6.233,0,0,0,1.108,3.511v.738l.555.74c.614.245.923.553.923.923a2.455,2.455,0,0,0,.924,1.109c.49.614.924,1.169,1.293,1.662s.8,1.045,1.293,1.663a10.413,10.413,0,0,0,2.956,3.141c.121,0,.245.121.37.369l.184.184a6.278,6.278,0,0,1,2.217,1.109,5.664,5.664,0,0,0,1.847,1.294l.185.184a3.279,3.279,0,0,0,.924,1.478,9.261,9.261,0,0,1,2.217,1.108,8.892,8.892,0,0,0,2.4.924,7.666,7.666,0,0,1,4.065,2.4,7.678,7.678,0,0,0,4.064,2.4,7.285,7.285,0,0,0,4.8-.555,7.117,7.117,0,0,1,1.294-.739c.859,0,1.293-.369,1.293-1.109,0-.369.306-.553.923-.553a7.394,7.394,0,0,0,3.51-1.848,7.316,7.316,0,0,0,1.016-1.293,8.234,8.234,0,0,1,1.2-1.478c.122-.248.246-.494.37-.739s.245-.494.369-.739a1.877,1.877,0,0,0,.462-.646,1.767,1.767,0,0,1,.462-.647,8.231,8.231,0,0,0,1.478-3.51,11.652,11.652,0,0,0,.554-3.7,30.922,30.922,0,0,0,.462-3.972q.09-1.94.092-3.971-.186-2.033-.277-3.88a30.536,30.536,0,0,0-.462-3.88q-.186-.921-.277-1.755a15.538,15.538,0,0,1-.092-1.755,9.959,9.959,0,0,0-.093-1.386,11.076,11.076,0,0,1-.092-1.57,5.567,5.567,0,0,1-.185-1.662,3.579,3.579,0,0,0-.554-1.848,8.857,8.857,0,0,1-.554-2.586,8.034,8.034,0,0,0-.093-1.293,6.583,6.583,0,0,1-.092-1.108q-.372-1.476-.739-3.326-.186-.921-.277-1.755c-.064-.554-.156-1.137-.277-1.755a3.661,3.661,0,0,1-.554-2.217,7.317,7.317,0,0,1-.739-2.217,4.448,4.448,0,0,1-.462-1.385,7.309,7.309,0,0,0-.462-1.571c-.124-.49-.248-.984-.369-1.477s-.248-.984-.37-1.479a2.734,2.734,0,0,1-.739-2.031,8.3,8.3,0,0,1-.277-1.016c-.064-.306-.156-.708-.277-1.2l-2.217-5.543c-.248-.614-.493-1.293-.739-2.032s-.493-1.538-.739-2.4q-.372-.921-.831-2.124t-.831-2.125a11.629,11.629,0,0,1-.462-1.109c-.185-.49-.4-1.045-.647-1.662q-.927-2.217-1.662-4.619-.373-1.107-.832-2.217t-1.016-2.216a4.36,4.36,0,0,1-.554-1.848c-.124-.49-.309-1.109-.555-1.847a12.2,12.2,0,0,1-1.847-3.14,6.97,6.97,0,0,1-.554-1.479,13.659,13.659,0,0,0-.554-1.662,16.347,16.347,0,0,1-1.478-2.956,8.55,8.55,0,0,0-1.663-3.141q-.925-1.844-1.847-3.787a23.463,23.463,0,0,1-1.478-3.972,3.979,3.979,0,0,0-.092-.923,2.909,2.909,0,0,1-.093-.74q-.372-1.107-.554-1.846c-.248-.492-.462-.953-.647-1.386a7.95,7.95,0,0,1-.462-1.57l-.554-3.326a1.773,1.773,0,0,0-.554-1.293,6.78,6.78,0,0,0-1.478-1.663,7.079,7.079,0,0,0-1.293-1.847l-4.8-5.911a7.7,7.7,0,0,0-.832-1.571,10.016,10.016,0,0,1-.831-1.385,7.7,7.7,0,0,1-.554-1.386c-.124-.43-.309-.952-.554-1.571a9.36,9.36,0,0,1-.554-1.292c-.124-.37-.309-.861-.555-1.478l-1.293-2.587a25.386,25.386,0,0,1-1.663-4.434,14.151,14.151,0,0,1-.646-2.124,14.827,14.827,0,0,0-.647-2.125q-.372-1.476-.739-2.678t-.739-2.494c-.248-.985-.462-1.876-.646-2.679s-.4-1.631-.647-2.493A23.237,23.237,0,0,1,21.473,85.8q-.277-2.121-.462-4.156V80.53a3.155,3.155,0,0,1-.184-1.294,18.644,18.644,0,0,1-.37-3.694q.181-.922.277-1.755t.277-1.94q.369-1.845.924-3.695a19,19,0,0,0,1.478-3.694,14.518,14.518,0,0,0,.739-1.663,12.9,12.9,0,0,1,.924-1.848,13.964,13.964,0,0,0,1.662-3.325,9.644,9.644,0,0,1,.924-1.755q.553-.831,1.108-1.755a14.946,14.946,0,0,1,4.065-4.618,22.378,22.378,0,0,1,3.325-3.049q1.845-1.386,4.249-2.863a4.317,4.317,0,0,1,1.108-.554,11.967,11.967,0,0,0,1.294-.739,1.075,1.075,0,0,1,.738-.185,5.536,5.536,0,0,1,2.771-1.478,13.335,13.335,0,0,1,1.663-.554q.736-.181,1.478-.37.555-.553,3.51-.923a8.969,8.969,0,0,1,1.016-.277A8.344,8.344,0,0,0,55,38.225c.37-.121.739-.246,1.108-.37s.74-.245,1.109-.37a3.673,3.673,0,0,1,1.663-.369,6.913,6.913,0,0,1,1.57-.554q.831-.183,1.57-.37.922-.182,1.57-.277a11.419,11.419,0,0,1,1.571-.092,7.7,7.7,0,0,0,1.293-.093,6.9,6.9,0,0,1,1.109-.091,5,5,0,0,1,2.216.184h4.065a18.032,18.032,0,0,1,3.51.369h1.478a6.547,6.547,0,0,1,1.57-.184h1.57a8.5,8.5,0,0,0,2.956.184A8.43,8.43,0,0,1,89,37.3a15.585,15.585,0,0,0,5.542,1.663.74.74,0,0,1,.462.092c.061.063.214.092.462.092a1,1,0,0,0,.647.37c.184,0,.337.124.461.37.37.124.708.248,1.017.369a5.8,5.8,0,0,1,1.016.555A3.021,3.021,0,0,1,100.08,42.1a2.485,2.485,0,0,0,1.293.554,4.575,4.575,0,0,1,.924.555,7.665,7.665,0,0,0,1.385.554,6.373,6.373,0,0,1,1.016.37,1.673,1.673,0,0,1,.184.738l.186.185.923.923.555.555c.983.617,1.477,1.108,1.477,1.478a2.949,2.949,0,0,0,.739,1.847,4.878,4.878,0,0,1,.185,1.478v.739a1.611,1.611,0,0,0,.185.739q0,.927.185,1.109a3.2,3.2,0,0,1-.185,1.293,1.249,1.249,0,0,0,.092.553.844.844,0,0,1,.093.371v2.4a1.033,1.033,0,0,0-.093.739,2.608,2.608,0,0,1,.093.554A9.955,9.955,0,0,1,109.132,64.827ZM19.164,253.63q1.476,1.29,2.678,2.4t2.5,2.4q1.29,1.107,2.586,2.216c.86.739,1.663,1.478,2.4,2.217q-2.216-2.4-4.8-4.8-1.108-1.107-2.309-2.216a12.464,12.464,0,0,1-2.124-2.586q-1.294-1.482-2.4-2.587a14.488,14.488,0,0,1-2.032-2.586q-1.109-1.48-2.032-2.772t-1.847-2.77A31.476,31.476,0,0,1,7.9,230.168a21.559,21.559,0,0,1,2.956-12.747,16.539,16.539,0,0,0-2.956,6.1q-.372,1.662-.647,3.325a8.621,8.621,0,0,0,.092,3.325,27.627,27.627,0,0,0,.924,6.65c.37.988.768,1.969,1.2,2.956s.892,1.969,1.386,2.956a22.1,22.1,0,0,0,1.94,2.957q1.012,1.29,2.124,2.77a18.086,18.086,0,0,0,2.032,2.679Q18.056,252.336,19.164,253.63ZM13.252,227.4a8.911,8.911,0,0,0-.184,1.755v1.755q.182.925.277,1.755t.277,1.94q.368,1.294,1.016,2.956t1.57,3.509a5.68,5.68,0,0,0,1.016,1.663,5.748,5.748,0,0,1,1.016,1.664q.555.735,1.109,1.384c.369.431.8.953,1.293,1.571q1.476,1.662,2.864,2.956t2.863,2.771q-.741-.741-1.386-1.478c-.433-.494-.831-.988-1.2-1.478q-.739-.927-1.385-1.663a6.987,6.987,0,0,1-1.016-1.478,32.916,32.916,0,0,1-4.249-6.281,14.6,14.6,0,0,1-1.478-3.14,24.457,24.457,0,0,0-1.293-3.141A25.785,25.785,0,0,1,13.252,227.4Zm39.719-79.068q.923,2.589,2.125,5.358a58.647,58.647,0,0,1,2.124,5.726,49.066,49.066,0,0,1,2.309,5.45q1.014,2.867,2.31,5.635-.927-2.953-1.94-5.727t-1.94-5.542l-2.217-5.542q-1.108-2.772-2.216-5.727-1.3-2.772-2.31-5.45t-2.309-5.635q-1.294-2.585-2.4-5.449a40.7,40.7,0,0,0-2.587-5.45q-2.589-5.912-5.173-11.455a38.825,38.825,0,0,1-2.494-5.726q-1.017-2.954-1.939-5.912-.927-3.139-1.756-6.28a44.894,44.894,0,0,1-1.2-6.282,49.874,49.874,0,0,1-.37-13.486A44.919,44.919,0,0,0,30.8,90.321a65.177,65.177,0,0,0,2.771,12.747q.924,2.957,2.033,5.911t2.4,5.727q2.586,5.914,5.173,11.454t4.9,11.085Q50.384,142.786,52.971,148.329Zm12.747,17.55q2.4,6.282,4.619,12.47t4.249,12.285q-.927-3.139-1.848-6.281t-1.847-6.281q-1.109-3.139-2.125-6.281a53.538,53.538,0,0,0-2.494-6.281q-1.294-2.953-2.4-6t-2.4-6.189q-1.294-3.138-2.4-6.189t-2.587-6.189q-1.294-3.138-2.494-6.188t-2.679-6q-3.142-6.465-5.542-12.378-1.48-3.139-2.771-6.188t-2.586-6.19A59.576,59.576,0,0,1,36.714,91.06q.555,3.324,1.386,6.558t1.755,6.373q1.29,3.144,2.4,6.281t2.4,6.282q1.476,3.142,2.863,6.188t2.864,6.19q1.29,3.143,2.586,6.095t2.771,6.1q1.109,3.144,2.4,6.188t2.586,6.19q1.29,3.144,2.494,6.188T65.718,165.879ZM59.437,120.8q-.927-2.031-1.847-4.157t-1.848-4.341A29.136,29.136,0,0,1,53.9,108.24q-.741-2.029-1.663-4.249a53.511,53.511,0,0,1-2.679-7.85,69.234,69.234,0,0,1-1.57-8.222,25.979,25.979,0,0,1-.277-7.851,44.7,44.7,0,0,1,1.571-7.482,58.8,58.8,0,0,0-1.663,7.667,31.765,31.765,0,0,0-.185,7.666q.367,2.035.739,4.064t.739,4.065a57.222,57.222,0,0,0,2.771,8.129q.736,2.215,1.478,4.249t1.663,4.063q.921,2.219,1.939,4.249t1.94,4.249q.923,2.037,1.94,4.158t1.94,4.34q.922,2.037,1.847,4.158t1.847,4.525q2.031,4.252,3.695,8.5t3.51,8.5q1.663,4.434,3.233,8.775t3.233,8.776a30.513,30.513,0,0,1,1.57,4.341q.647,2.313,1.386,4.526a32.148,32.148,0,0,1,1.57,4.249,41.867,41.867,0,0,0,1.57,4.434l5.543,17.549q-.555-2.029-1.2-4.249t-1.2-4.433a39.194,39.194,0,0,1-1.478-4.618,43.213,43.213,0,0,0-1.293-4.249L83.638,181.4q-.927-2.4-1.57-4.619t-1.386-4.249q-1.664-4.432-3.325-8.774t-3.141-8.776q-1.662-4.248-3.418-8.5T67.2,137.8ZM48.168,109.534q.736,2.035,1.478,3.787t1.662,3.787q.736,2.035,1.478,3.879t1.663,3.7q.922,1.848,1.755,3.694t1.755,3.88q.736,2.034,1.478,3.879a35.974,35.974,0,0,0,1.847,3.88q.736,1.848,1.478,3.7t1.478,3.879q.736,2.034,1.478,3.88t1.663,3.879L73.662,170.5q-1.294-3.695-2.679-7.575t-2.863-7.759q-.741-2.029-1.386-3.879t-1.57-3.88q-.741-2.03-1.478-3.88t-1.663-3.879q-.927-1.843-1.755-3.695t-1.57-3.879q-.927-2.031-1.755-3.88A35.756,35.756,0,0,0,55,124.5q-.927-1.845-1.755-3.7t-1.755-3.695q-.926-2.031-1.662-3.787T48.168,109.534Zm50.988,113.8v.185h.184v-.185Z"/><path class="cls-1" d="M228.656,232.569q.922,2.219-1.293,2.956-1.662.372-3.326.647a8.6,8.6,0,0,1-3.325-.092,6.76,6.76,0,0,0-2.4-.277,10.531,10.531,0,0,1-2.4-.093,8.729,8.729,0,0,1-5.358-2.586,6.465,6.465,0,0,0-1.662-1.2q-.927-.459-1.847-.831a4.25,4.25,0,0,1-2.033-1.293q-.739-.554-1.385-1.109a5.645,5.645,0,0,0-1.571-.923,2.408,2.408,0,0,1-.646-.462c-.185-.185-.4-.4-.647-.647-.124,0-.309.124-.554.369a16.1,16.1,0,0,0-.554,1.571,8.132,8.132,0,0,1-.554,1.385.875.875,0,0,0-.278.831.88.88,0,0,1-.276.832,14.07,14.07,0,0,0-.832,2.586,5.532,5.532,0,0,1-1.2,2.4.326.326,0,0,0-.369.37,6.782,6.782,0,0,1-.739,2.308q-.555,1.014-1.108,1.941-.372.921-.832,1.939a6.727,6.727,0,0,1-1.385,1.94l-.185.37a8.948,8.948,0,0,1-1.755,3.048,22.606,22.606,0,0,0-2.125,2.863,1.672,1.672,0,0,1-.738.462.812.812,0,0,0-.555.462,7.2,7.2,0,0,1-.739.646,6.6,6.6,0,0,0-.739.647,6.329,6.329,0,0,1-2.032,1.386,6.2,6.2,0,0,0-2.032,1.385,4.39,4.39,0,0,1-1.385.739,15.73,15.73,0,0,0-1.571.554,1.477,1.477,0,0,1-.554.185,1.388,1.388,0,0,0-.554.184,5.257,5.257,0,0,1-2.125,1.017c-.8.185-1.57.4-2.309.647l-4.434,1.662a29.2,29.2,0,0,1-3.7,1.2q-1.848.459-3.694.831a27.2,27.2,0,0,1-6.466.924q-3.143,0-6-.185a54.969,54.969,0,0,1-6-.739,3.22,3.22,0,0,0-.924-.276,2.917,2.917,0,0,1-1.108-.462,40.637,40.637,0,0,1-6-2.679,54.522,54.522,0,0,1-5.45-3.418q-1.48-1.108-3.048-2.31a19.6,19.6,0,0,1-2.863-2.678,22.667,22.667,0,0,1-2.033-2.4c-.493-.739-.955-1.449-1.385-2.124a23.049,23.049,0,0,1-1.2-2.125,4.029,4.029,0,0,1-.554-1.293,7.227,7.227,0,0,0-.555-1.478c-.248-.617-.461-1.233-.646-1.847s-.4-1.232-.647-1.848a1.567,1.567,0,0,1-.185-.461,1.71,1.71,0,0,0-.184-.462q-.372-2.584-.739-5.265a38.207,38.207,0,0,1-.37-5.266q.183-2.583.37-4.987t.554-4.988q.181-.922.369-1.94t.37-1.94q.555-3.507,1.386-7.02a38.766,38.766,0,0,1,2.309-6.836q.737-2.215,1.386-4.433t1.385-4.249q.181-.921.37-1.662a12.505,12.505,0,0,1,.554-1.663,11.407,11.407,0,0,1,1.2-3.141q.833-1.476,1.571-2.955,1.662-2.772,2.956-5.358t2.4-5.172l2.217-5.173q1.108-2.4,2.309-4.618a26.99,26.99,0,0,1,2.864-4.249q1.108-1.478,2.309-3.141t2.494-3.141a8.685,8.685,0,0,0-1.108-2.4,14.8,14.8,0,0,1-1.294-2.4c-.248-.615-.462-1.169-.646-1.662a4.7,4.7,0,0,1-.277-1.664v-.369a7.4,7.4,0,0,1-.832-2.032c-.184-.739-.4-1.477-.646-2.217q-.555-1.662-1.2-3.233t-1.2-3.048a4.331,4.331,0,0,1-.369-1.57,4.432,4.432,0,0,0-.37-1.571q-.372-1.476-.739-2.956t-.739-2.955a36.592,36.592,0,0,1-.923-14.964,13.7,13.7,0,0,0,.184-2.216,13.377,13.377,0,0,1,.185-2.218,7.16,7.16,0,0,0,.277-1.2,6.784,6.784,0,0,1,.277-1.2q.923-2.583,1.94-4.987a21.893,21.893,0,0,1,2.679-4.619,10.012,10.012,0,0,0,1.57-2.032,16.785,16.785,0,0,1,1.385-2.032A19.126,19.126,0,0,1,143.4,85.24l1.386-1.385a19.334,19.334,0,0,1,3.694-3.51,16.678,16.678,0,0,1,2.217-1.571q1.109-.644,2.217-1.384a8.733,8.733,0,0,1,2.4-1.294q2.4-.923,4.9-1.847a12.055,12.055,0,0,1,5.081-.739c.245.248.369.248.369,0a5.31,5.31,0,0,1,2.771,0,6.838,6.838,0,0,0,2.771.184,1.16,1.16,0,0,1,.647.185,1.125,1.125,0,0,0,.646.185,3.253,3.253,0,0,0,1.478.37,8.463,8.463,0,0,1,1.755.553c.554.249,1.137.494,1.756.74a16.09,16.09,0,0,1,1.754.831,15.075,15.075,0,0,0,1.755.832c.121,0,.306.124.555.369a3.181,3.181,0,0,0,2.216,1.108,7.678,7.678,0,0,1,2.4,1.663c.491.617.953,1.2,1.385,1.755a9.328,9.328,0,0,0,1.571,1.57,1.687,1.687,0,0,1,.462.924,3.161,3.161,0,0,0,.277.923c.245.618.462,1.234.646,1.848a5.226,5.226,0,0,0,.832,1.663q.735,1.481,1.108,2.4a15.932,15.932,0,0,1,.647,2.032q.276,1.11.646,2.217a5.385,5.385,0,0,1-.184,3.7,3.255,3.255,0,0,0-.37,1.478v1.478a11.111,11.111,0,0,1-.369,2.863q-.372,1.386-.739,2.679-.741,1.848-1.294,3.6t-1.108,3.787l-.554,1.109a18.056,18.056,0,0,1-.924,1.94,12.977,12.977,0,0,0-.923,2.124c-.249.618-.462,1.2-.647,1.755a4.036,4.036,0,0,1-1.016,1.57.326.326,0,0,0-.37.369,7.368,7.368,0,0,1-1.385,2.772,16.022,16.022,0,0,0-1.755,2.771,28.453,28.453,0,0,1-1.2,2.771q-.65,1.294-1.386,2.771c-.124,0-.184.124-.184.37a2.479,2.479,0,0,0-1.386,1.663,7.416,7.416,0,0,1-.831,2.032,3.007,3.007,0,0,1-1.294,1.847,5.735,5.735,0,0,0-1.477,2.032,25.539,25.539,0,0,1-1.663,3.14q-.926,1.482-1.847,2.956a4.3,4.3,0,0,0-.739,1.109,6.044,6.044,0,0,0-.739,1.939,5.99,5.99,0,0,0,.739,1.941,12.859,12.859,0,0,0,.924,2.124q.554,1.019,1.108,2.125a1.05,1.05,0,0,0,.369.738q.923,1.108,1.848,2.217t1.847,2.4c.246.248.37.433.37.554a12.159,12.159,0,0,0,1.385,2.679,14.355,14.355,0,0,1,1.386,2.494c.121.248.213.369.277.369s.153.124.277.37a7.34,7.34,0,0,0,.924,1.108,5.042,5.042,0,0,1,.924,1.293c.614.739,1.261,1.45,1.939,2.124s1.322,1.326,1.94,1.941a22.083,22.083,0,0,1,4.988,6.28,2.744,2.744,0,0,0,.554.739,8.547,8.547,0,0,1,1.478,1.479c.37.493.8,1.047,1.293,1.662a21.508,21.508,0,0,1,2.494,2.956,31.277,31.277,0,0,0,2.309,2.956,3.134,3.134,0,0,1,.37.462,4.262,4.262,0,0,0,.554.647q4.248-9.423,8.406-18.29t8.775-17.735c.49-.121.924-.245,1.293-.369s.739-.246,1.109-.37a7.111,7.111,0,0,0,.738,1.663,3.571,3.571,0,0,0-.277.739,3.815,3.815,0,0,1-.277.738,4.946,4.946,0,0,0-.184,2.957,3.177,3.177,0,0,1-.186,1.293c-.248.739-.493,1.449-.738,2.125s-.494,1.384-.74,2.124v.739a6.257,6.257,0,0,1-.369,3.048q-.553,1.385-1.108,2.863a22.114,22.114,0,0,0-.647,2.4q-.278,1.294-.647,2.586c-.248.248-.248.369,0,.369a1.077,1.077,0,0,1,.186,1.017c-.125.309-.249.646-.37,1.016l-.554,4.433a3.282,3.282,0,0,1-.37,1.479,15.823,15.823,0,0,0-.554,1.57,8.173,8.173,0,0,1-.554,1.386,1.276,1.276,0,0,1-.093.553.809.809,0,0,0-.092.37c-.124.618-.217,1.171-.277,1.663a4.627,4.627,0,0,1-.462,1.477,5.272,5.272,0,0,0-.369,2.494,10.1,10.1,0,0,0,.184,2.494c.121.249.214.37.278.37s.213.124.461.37c-.124.248-.248.525-.369.831s-.249.646-.37,1.015a1.606,1.606,0,0,0,.185,1.664.425.425,0,0,1,.093.461,1.988,1.988,0,0,0-.093.647l-.554,3.88a2.547,2.547,0,0,0,.554,1.846c.121,0,.369.31.739.924a10.674,10.674,0,0,0,1.108,1.479,8.721,8.721,0,0,1,1.848,2.124c.49.8.984,1.57,1.478,2.309a35.828,35.828,0,0,0,2.309,3.417,15.658,15.658,0,0,0,2.864,2.865,4.83,4.83,0,0,1,1.016.923,3.611,3.611,0,0,0,1.2.923c.121,0,.37.185.739.555.491.617.953,1.2,1.386,1.755s.891,1.141,1.385,1.755A10,10,0,0,1,228.656,232.569Zm-107.887-30.3a29.139,29.139,0,0,1,.923-3.509l1.109-3.326q1.109-3.506,2.4-6.927a57.4,57.4,0,0,1,2.956-6.559q.737-1.476,1.57-3.14t1.756-3.141a5.6,5.6,0,0,1,.923-1.57,5.552,5.552,0,0,0,.924-1.571,17.76,17.76,0,0,1,2.032-2.955,11.082,11.082,0,0,0-1.2,1.385c-.309.434-.646.956-1.016,1.57a6.776,6.776,0,0,1-.924,1.386,11.933,11.933,0,0,0-1.108,1.57q-.927,1.482-1.755,3.049t-1.755,3.233a71.346,71.346,0,0,0-3.048,6.558q-1.386,3.42-2.494,6.742-.555,1.851-1.016,3.511t-.831,3.51l-.74,3.51-.739,3.51a24.671,24.671,0,0,0-.461,3.6q-.1,1.76-.277,3.6,0,1.849-.093,3.6c-.064,1.172-.092,2.373-.092,3.6a33.966,33.966,0,0,1,.185-3.6q.181-1.753.369-3.6a21.123,21.123,0,0,0,.462-3.416,24.672,24.672,0,0,1,.462-3.6l.738-3.511Zm1.847,19.213q.368-3.693.739-7.481a74.864,74.864,0,0,1,1.109-7.483q.921-3.691,1.847-7.3a72.627,72.627,0,0,1,2.216-7.113q1.478-3.507,2.957-6.927t3.325-6.744A61.737,61.737,0,0,0,131.114,185q-1.662,3.42-3.141,6.928a50.561,50.561,0,0,0-2.4,7.112q-.927,3.6-1.848,7.3a120.866,120.866,0,0,0-1.662,15.148q0,3.7.184,7.575a50.57,50.57,0,0,0,.924,7.574q-.372-3.879-.462-7.666T122.616,221.485Zm7.39-18.1a14.818,14.818,0,0,0,.554-2.217,9.6,9.6,0,0,1,.554-2.032q.369-1.107.646-2.217a15.719,15.719,0,0,1,.647-2.032q.367-1.107.739-2.124c.245-.676.491-1.386.739-2.125a32.045,32.045,0,0,0-1.847,4.064c-.249.618-.494,1.293-.74,2.032s-.493,1.478-.738,2.217a15.67,15.67,0,0,0-.647,2.032q-.278,1.11-.646,2.217a22.038,22.038,0,0,0-.924,4.249l-.739,4.434-.555,4.433a52.955,52.955,0,0,0,0,8.869q0-2.219.186-4.435t.554-4.434l.369-4.433.924-4.249A22.006,22.006,0,0,1,130.006,203.381Zm10.9-17.181,2.4-4.064,2.4-4.064,2.771-3.695-2.955,3.695-2.587,3.879-2.4,4.065-2.032,4.249A88.105,88.105,0,0,0,132.592,208a85.864,85.864,0,0,0-1.294,9.421,79.154,79.154,0,0,0-.184,9.422l.37,4.618.554,4.8.923,4.433,1.294,4.618-1.109-4.618-.739-4.618-.554-4.619-.185-4.618a72.972,72.972,0,0,1,1.663-18.658,88.088,88.088,0,0,1,2.309-9.053,86.4,86.4,0,0,1,3.233-8.683Zm-.185-60.409a63.917,63.917,0,0,0,4.8,13.855,117.969,117.969,0,0,0,6.927,12.655q3.785,6.006,8.036,11.916t8.313,11.546q4.062,5.637,7.76,11.546a130.211,130.211,0,0,0-7.3-11.824q-3.975-5.723-8.22-11.638t-8.036-11.915a98.669,98.669,0,0,1-6.744-12.656,64.168,64.168,0,0,1-4.8-13.67,52.8,52.8,0,0,1-1.293-14.594A40.4,40.4,0,0,1,143.307,96.6q.923-1.846,1.755-3.511A20.473,20.473,0,0,1,147,89.951a4.728,4.728,0,0,1,.462-.738,6.745,6.745,0,0,1,.646-.739l1.108-1.663a10.379,10.379,0,0,1,.831-.739c.307-.245.647-.491,1.017-.739a5.829,5.829,0,0,1,1.385-.646,2.788,2.788,0,0,1,1.571-.093,3.408,3.408,0,0,0-2.956.739,7.944,7.944,0,0,0-1.848,1.478,10.81,10.81,0,0,0-1.293,1.478,11.143,11.143,0,0,1-1.108,1.478,29.806,29.806,0,0,0-3.695,6.65,37.924,37.924,0,0,0-3.51,14.6A49.339,49.339,0,0,0,140.72,125.791Zm48.587,91.445c.245-.49.491-.984.739-1.477s.49-.985.738-1.479a6.5,6.5,0,0,1-.646-.738,7.339,7.339,0,0,0-.647-.739q-.926-.924-1.755-1.848t-1.755-2.032a48.216,48.216,0,0,0-3.233-4.618,49.793,49.793,0,0,0-3.787-4.249l-.369-.369a4.984,4.984,0,0,0-.924-1.293,11.974,11.974,0,0,1-1.108-1.294q-.927-1.109-1.94-2.217a24.81,24.81,0,0,1-1.94-2.4,11.323,11.323,0,0,0-3.51-3.694q-.741-.555-1.386-1.108a3.691,3.691,0,0,1-1.015-1.479,6.412,6.412,0,0,1-.647-.738,7.215,7.215,0,0,0-.647-.739,28.313,28.313,0,0,1-2.309-2.587,30.524,30.524,0,0,1-1.94-2.771l-2.771-3.88a2.033,2.033,0,0,0-.924-.738q-1.662-.923-3.14.923-.927,1.481-1.663,2.679t-1.662,2.678a19.473,19.473,0,0,0-1.017,1.941,18.994,18.994,0,0,1-1.016,1.939q-.739,1.3-1.385,2.586a13.336,13.336,0,0,0-1.016,2.772,9.144,9.144,0,0,1-.462,1.385c-.184.433-.4.895-.646,1.386a2.811,2.811,0,0,0-.37,1.109,26.791,26.791,0,0,1-1.108,4.34,25.5,25.5,0,0,0-1.109,4.527,16.6,16.6,0,0,0-.462,3.14,10.609,10.609,0,0,1-.646,3.141V210.4a39.121,39.121,0,0,1,0,7.575v1.108a15.551,15.551,0,0,0,.092,1.755,3.48,3.48,0,0,0,.832,1.755,1.523,1.523,0,0,1,.184.646,1.474,1.474,0,0,0,.185.647q0,.927.554.554a1.66,1.66,0,0,0-.277-.831c-.184-.306.029-.583.647-.832a2.367,2.367,0,0,1,.554.924,2.264,2.264,0,0,0,.554.924,1.791,1.791,0,0,1-.185,2.032c-.124.248-.248.369-.369.369s-.248.124-.369.37a1.5,1.5,0,0,0-.37,1.109c0,.617.029,1.264.092,1.939a6.767,6.767,0,0,0,.462,1.94,4.277,4.277,0,0,1,.092,2.309,8.852,8.852,0,0,0-.276,2.31,2.723,2.723,0,0,1-.832-.093,2.091,2.091,0,0,0-.646-.093,1.587,1.587,0,0,0-1.663.924,6.635,6.635,0,0,0-.37,2.125,3.845,3.845,0,0,0,.739,2.124,9.521,9.521,0,0,0,2.4,2.587q1.476,1.107,2.956,2.217a8.761,8.761,0,0,1,2.4,1.293,11.315,11.315,0,0,0,1.94.924q1.014.368,1.94.739a4.86,4.86,0,0,0,1.478.185h3.51a30.62,30.62,0,0,0,3.325-.185c.121,0,.306-.125.554-.37a1,1,0,0,0-.369-.462,1,1,0,0,1-.37-.462,1.591,1.591,0,0,1,.832-.462,1.64,1.64,0,0,0,.831-.462,1.009,1.009,0,0,1,.462.37c.06.121.214.185.462.185.738-.124,1.506-.217,2.309-.277s1.57-.156,2.309-.278a.162.162,0,0,1,.185-.184,10.566,10.566,0,0,0,4.433-3.326,70.39,70.39,0,0,0,4.065-6.281q.923-1.662,1.94-3.417t1.939-3.418q2.4-4.434,4.988-8.313.923-1.477,1.663-2.679T189.307,217.236Zm-30.482-64.658q-2.4-3.693-4.527-7.39t-3.971-7.389a64.58,64.58,0,0,1-3.141-7.852,58.867,58.867,0,0,1-2.032-8.22,46.019,46.019,0,0,1,0-16.442,39.679,39.679,0,0,0-.554,16.626,58.775,58.775,0,0,0,2.032,8.221q1.29,3.975,2.956,7.851,2.031,3.88,4.064,7.575a79.875,79.875,0,0,0,4.619,7.389q2.4,3.7,4.987,7.113t5.358,6.927q-2.589-3.693-4.988-7.2T158.825,152.578Zm-2.4-46.184a11.24,11.24,0,0,1,0,2.863,21.52,21.52,0,0,0-.185,2.863,31.338,31.338,0,0,0,1.109,5.358q.368,1.294.646,2.4c.185.739.4,1.542.647,2.4a1.523,1.523,0,0,1,.185.647.622.622,0,0,0,.184.462,5.406,5.406,0,0,1,1.017,1.939q.276,1.019.646,2.124a.794.794,0,0,0,.092.37,1.3,1.3,0,0,1,.093.554,3.042,3.042,0,0,0,1.016-1.2,7.249,7.249,0,0,1,.647-1.2q.921-2.217,1.847-4.342t1.848-4.156c.121-.246.245-.523.369-.832a2.3,2.3,0,0,0,.185-.831q.368-1.109.831-2.217t.831-2.217q1.29-3.693,3.141-7.944a12.5,12.5,0,0,0,0-9.421,18.1,18.1,0,0,0-1.386-3.141q-.831-1.476-1.57-2.956a1.356,1.356,0,0,0-1.663-.554,5.06,5.06,0,0,0-2.217,1.293,22.462,22.462,0,0,0-1.662,1.848q-.927,1.109-1.663,2.124t-1.478,1.94a12.339,12.339,0,0,1-.739,1.293c-.248.369-.493.74-.739,1.109a15.823,15.823,0,0,0-.554,1.57c-.124.433-.248.955-.37,1.57q-.186.74-.276,1.293c-.064.369-.156.8-.278,1.293a11.165,11.165,0,0,1-.184,2.4,1.15,1.15,0,0,1-.185.646A1.132,1.132,0,0,0,156.423,106.394Z"/><path class="cls-1" d="M324.6,80.715c0,.738-.032,1.477-.092,2.217s-.156,1.541-.277,2.4q-.186,1.848-.278,3.7a24.385,24.385,0,0,0,.093,3.695,9.871,9.871,0,0,1-.093,1.385,9.646,9.646,0,0,0-.092,1.386v3.14q-.186,1.85-.37,3.6t-.554,3.6a1.479,1.479,0,0,0-.092.924,5.87,5.87,0,0,1,.092.924v2.124a4.747,4.747,0,0,1-.554,2.125v.739a2.226,2.226,0,0,1-.185,1.477,2.8,2.8,0,0,0-.461,1.109,3.445,3.445,0,0,1-.277.924,18.473,18.473,0,0,0-.278,1.847q-.095.926-.276,1.847a2.634,2.634,0,0,1-.37,1.478,4.583,4.583,0,0,0-.462,1.571q-.095.829-.277,1.755a1.484,1.484,0,0,0-.185.646,1.516,1.516,0,0,1-.184.647,16.8,16.8,0,0,0-.832,3.14q-.278,1.663-.462,3.141v1.477a1.484,1.484,0,0,0-.185.647,1.509,1.509,0,0,1-.184.646,4.908,4.908,0,0,0-.185,3.511,10.61,10.61,0,0,1-.185,4.434,8.714,8.714,0,0,0-.369,2.4,17.341,17.341,0,0,1-.185,2.4,2,2,0,0,0,.092.647.422.422,0,0,1-.092.462q-.741.555-.646,1.108a2.785,2.785,0,0,0,.462,1.109q-.555.927-.924,1.57a2.2,2.2,0,0,0-.185,1.57v.37a1.676,1.676,0,0,0-.554,1.2,5.8,5.8,0,0,1-.185,1.385,3.536,3.536,0,0,0-.092,1.386,3.668,3.668,0,0,1-.093,1.386.3.3,0,0,0-.092.369.3.3,0,0,1-.092.369q-.187.927-.462,1.94a4.885,4.885,0,0,0-.092,2.125.751.751,0,0,1-.186.554,9.325,9.325,0,0,0-.369,2.586v2.772a31.807,31.807,0,0,1,0,4.8q-.186,1.482-.369,2.772a19.5,19.5,0,0,0-.185,2.77,2.6,2.6,0,0,1-.185,1.109,12.7,12.7,0,0,0-.554,1.663,3.753,3.753,0,0,0,0,1.663,1.252,1.252,0,0,1-.37.923,4.824,4.824,0,0,0,.185,3.511q.368.554.277.831c-.063.184-.4.4-1.016.646-.618.369-.618.679,0,.924a2.568,2.568,0,0,1,.739,2.586,2.235,2.235,0,0,0-.092,1.108,2.3,2.3,0,0,1-.093,1.109,12.387,12.387,0,0,0-.461,2.494c-.064.8-.093,1.634-.093,2.494a9.357,9.357,0,0,0-.185,1.848v2.678a1.148,1.148,0,0,1-.369.831.383.383,0,0,1-.092.278.37.37,0,0,0-.093.277,1.759,1.759,0,0,1-.092,1.662,2.2,2.2,0,0,0-.277,1.663,4.068,4.068,0,0,1,0,2.955,3.272,3.272,0,0,0-.37,1.479,8.631,8.631,0,0,1-.185,1.662q-.372,1.108-.738,2.217a5.143,5.143,0,0,0-.185,2.4,3.07,3.07,0,0,1-.277,1.2,7.43,7.43,0,0,1-.647,1.2,7.018,7.018,0,0,1-1.293,1.848,2.159,2.159,0,0,0-.739,1.847,11.871,11.871,0,0,1,.37,2.864,6.408,6.408,0,0,1-.74,2.863,2.31,2.31,0,0,0-.276,1.385,59.011,59.011,0,0,0,.276,3.326,3.087,3.087,0,0,1-.738,1.94,1.446,1.446,0,0,0-.185.923,7.83,7.83,0,0,1-.185,1.847,4.655,4.655,0,0,1-1.385.462,1.879,1.879,0,0,1-1.386-.462,2.083,2.083,0,0,0-.646,1.11,7.775,7.775,0,0,1-.278,1.108q-.372.921-.739,1.847a3.161,3.161,0,0,0-.184,1.847.769.769,0,0,1-.185.555,1.408,1.408,0,0,0-.647,1.016,7.165,7.165,0,0,1-.277,1.2c-.248.614-.461,1.169-.647,1.662a2.9,2.9,0,0,1-1.016,1.293c-.248.246-.369.431-.369.555a3.885,3.885,0,0,1-.554,2.032,12.574,12.574,0,0,0-.924,1.846,1.573,1.573,0,0,1-.369.278,1.363,1.363,0,0,0-.37.277,8.669,8.669,0,0,0-1.662,2.217q-.374.923-.739,1.663t-.739,1.662a1.114,1.114,0,0,1-.739.739l-.739.74a2.228,2.228,0,0,1-1.478,1.477c0,.121-.032.185-.093.185s-.092.06-.092.184a6.386,6.386,0,0,1-1.847,1.848,2.352,2.352,0,0,1-1.016.555,7.781,7.781,0,0,0-1.386.553,1.1,1.1,0,0,1-.092,1.293c-.306.37-.647.74-1.016,1.109a9.22,9.22,0,0,0-2.956,2.771,3.765,3.765,0,0,1-2.4,1.662,7.4,7.4,0,0,0-1.847,1.109,16.921,16.921,0,0,1-1.847,1.294q-.736.368-1.479.831a4.966,4.966,0,0,1-1.662.646.755.755,0,0,1-.554.185,3.679,3.679,0,0,0-1.2.924,1.331,1.331,0,0,1-1.386.369,2.875,2.875,0,0,0-1.293.277,6.338,6.338,0,0,1-1.293.462,8.141,8.141,0,0,1-3.325.369,9.368,9.368,0,0,0-2.217-.461,7.144,7.144,0,0,1-2.032-.462,3.923,3.923,0,0,1-2.771-1.663c-.491-.493-.924-.955-1.293-1.386s-.8-.955-1.294-1.57c-.369-.493-.767-1.015-1.2-1.57a17.623,17.623,0,0,1-1.2-1.755,4.025,4.025,0,0,0-1.109-1.57,6.64,6.64,0,0,1-1.293-1.571q-.922-1.295-1.847-2.494t-1.848-2.679a13.3,13.3,0,0,1-.923-1.846q-.369-.927-.739-1.848-.736-1.662-1.293-3.325t-1.109-3.325a16.694,16.694,0,0,1-1.016-3.7q-.277-1.848-.646-3.878c-.122-.74-.214-1.45-.278-2.125s-.153-1.386-.277-2.124q-.368-2.4-.739-4.62t-.554-4.433a28.528,28.528,0,0,1,0-6.466q0-2.217.185-4.434t.369-4.618a41.016,41.016,0,0,1,2.772-11.454,11,11,0,0,1,1.108-2.77q.739-1.291,1.478-2.772.926-1.29,1.662-2.494t1.478-2.679a16.691,16.691,0,0,1,1.663-2.678q.926-1.2,1.847-2.5a22.086,22.086,0,0,1,1.848-2.216l.554-.554a14.952,14.952,0,0,0,4.064-4.249q1.294-1.476,2.679-2.772t2.863-2.586a3,3,0,0,1,1.016-.923,2.919,2.919,0,0,0,1.016-.924,10.7,10.7,0,0,1,2.033-1.848q.925-.921,2.032-1.847t2.032-1.847a20.191,20.191,0,0,1,2.309-1.663,19.344,19.344,0,0,0,2.309-1.662q1.849-1.291,3.511-2.31t3.509-2.31q1.3-.921,2.587-1.939t2.586-1.939a1.673,1.673,0,0,0,.924-1.479c0-.859.029-1.662.092-2.4s.093-1.538.093-2.4q.181-3.693.184-7.112t.185-7.112q.182-3.326.369-6.743t.37-6.744V123.02q.181-6.1.185-12.193t.185-12.193q.181-4.987.369-9.883t.369-9.884l.555-10.53q.368-2.4.554-4.711t.184-4.711a47.62,47.62,0,0,0,.37-5.911q0-2.953.185-5.912c0-.985.028-1.968.092-2.955s.153-1.969.277-2.956a1.3,1.3,0,0,0-.554.091,1.255,1.255,0,0,1-.554.093,13.788,13.788,0,0,1-4.8,2.772,5.063,5.063,0,0,0-2.217,1.293q-1.478,1.108-2.864,2.124a28.446,28.446,0,0,1-3.048,1.94.162.162,0,0,1-.184.185,2.449,2.449,0,0,1-1.017,1.293,2.993,2.993,0,0,0-1.016.924c-.369.369-.554.617-.554.739a7.717,7.717,0,0,1-1.478,2.031,4.588,4.588,0,0,0-.554.924,6.333,6.333,0,0,1-1.016,1.108c-.185.124-.583.37-1.2.739A7.136,7.136,0,0,1,268.8,59.1q-.367.74-.831,1.477a2.229,2.229,0,0,0-.278,1.663,1.5,1.5,0,0,1-.554.923,7.357,7.357,0,0,0-1.385,1.848,10.232,10.232,0,0,1-1.2,1.847,12.553,12.553,0,0,1-.831,1.109,1.972,1.972,0,0,0-.462,1.293,1.049,1.049,0,0,1-.37.739,2.012,2.012,0,0,1-.369.554,2.268,2.268,0,0,0-.37.554,4.17,4.17,0,0,0-1.293,4.249,3.723,3.723,0,0,1,0,1.663,3.294,3.294,0,0,0,1.109,3.14l1.108,1.109c.494.739.924,1.357,1.293,1.847a1.156,1.156,0,0,1,.278.462,1.183,1.183,0,0,0,.276.462,2.1,2.1,0,0,1,.924,2.586l1.109,1.108a4.976,4.976,0,0,1,.924,1.294l-.186.185a2.551,2.551,0,0,0-1.662,2.217c-.491.124-.953.248-1.385.369s-.953.248-1.571.369a2.9,2.9,0,0,0,.739,1.108q-1.108.188-2.124.278a19.515,19.515,0,0,0-1.94.277,2.935,2.935,0,0,1-.739-.093,3.1,3.1,0,0,0-.739-.092,36.306,36.306,0,0,1-11.084-5.727q-.736-.553-1.386-1.016a5.486,5.486,0,0,1-1.2-1.2,20.535,20.535,0,0,1-2.309-2.308,8.6,8.6,0,0,1-1.57-2.864q-.369-.922-.647-1.847c-.185-.616-.4-1.23-.646-1.848a6.884,6.884,0,0,1-.462-1.662q-.091-.737-.277-1.663a4.614,4.614,0,0,1,.554-3.325,9.011,9.011,0,0,0,1.016-2.586q.276-1.291.646-2.772.374-1.662.924-3.418t1.109-3.417a6.748,6.748,0,0,0,.461-1.94c.064-.675.156-1.323.277-1.94a5.55,5.55,0,0,0-.092-.924,5.959,5.959,0,0,1-.092-.923q.739-1.108,1.847-2.586a10.2,10.2,0,0,0,.647-1.109,2.166,2.166,0,0,1,1.016-.924c.248,0,.369-.184.369-.554a8.522,8.522,0,0,1,.739-1.478q.372-.553.739-1.108l3.325-3.325,2.772-2.217a11.7,11.7,0,0,1,2.4-1.479,7.194,7.194,0,0,0,2.309-1.108q1.019-.735,1.94-1.478a31.715,31.715,0,0,1,3.233-1.57q1.572-.645,3.233-1.2a1.527,1.527,0,0,1,.647-.185.617.617,0,0,0,.461-.184,13.1,13.1,0,0,1,3.511-1.662l3.695-1.11q1.662-.367,3.325-.831t3.14-.831a32.584,32.584,0,0,0,3.51-.739q2.772-.553,5.542-1.2t5.358-1.2h.185v2.771q1.288-.555,2.586-1.108a5.257,5.257,0,0,1,2.771-.37,2.817,2.817,0,0,0,1.108-.37,9.579,9.579,0,0,1,3.141-.184l2.771.554a9.831,9.831,0,0,1,3.972,1.57,22.979,22.979,0,0,1,3.233,2.679,12.913,12.913,0,0,0,.923,2.125,6.709,6.709,0,0,1,.739,2.124c0,.248.03.4.093.461a.744.744,0,0,1,.092.462.367.367,0,0,0,.093.278.387.387,0,0,1,.092.277,25.16,25.16,0,0,0,1.108,6.1,10.428,10.428,0,0,1,.37,2.4,10.082,10.082,0,0,1,.184,1.941v2.124a.823.823,0,0,1-.092.37,1.266,1.266,0,0,0-.092.553c-.124.248-.248.526-.37.832a2.7,2.7,0,0,0-.184,1.016v3.694a3.162,3.162,0,0,1,.462,1.941,2.387,2.387,0,0,0,.831,1.939,1.518,1.518,0,0,1,.369,1.109q.181.74.37,1.385t.369,1.571a2.9,2.9,0,0,0,.093.738,3.141,3.141,0,0,1,.092.739c.121.618.214,1.2.277,1.755s.153,1.141.277,1.755a19.01,19.01,0,0,1,.277,2.032,17.669,17.669,0,0,0,.278,2.033,3.3,3.3,0,0,1,.184,1.016,3.205,3.205,0,0,0,.185,1.016,9.309,9.309,0,0,0,.185,1.847,4.744,4.744,0,0,1,0,1.847,4.188,4.188,0,0,0,0,1.756Q324.407,79.791,324.6,80.715Zm-83.132,153.7q.372,5.174,1.2,10.068a76.708,76.708,0,0,0,2.309,9.7,75.019,75.019,0,0,1-1.94-9.791q-.645-4.99-1.016-9.977a67.976,67.976,0,0,1,1.847-20.137,54.932,54.932,0,0,1,8.313-18.473,49.245,49.245,0,0,1,14.78-14.225,44,44,0,0,0-8.406,6.1A48.648,48.648,0,0,0,246.543,204.4a60.8,60.8,0,0,0-3.418,9.7,56.666,56.666,0,0,0-1.662,10.068A71.313,71.313,0,0,0,241.463,234.417ZM262.338,39.333a63.455,63.455,0,0,1,5.635-3.694q2.865-1.664,5.819-3.141-3.139,1.294-6.1,2.771a40.042,40.042,0,0,0-5.726,3.51q-2.586,2.035-5.173,4.341a33.149,33.149,0,0,0-4.619,5.08,34.818,34.818,0,0,0-5.911,12.378,28.336,28.336,0,0,0-1.016,6.835,23.166,23.166,0,0,0,.831,6.836,24.118,24.118,0,0,1-.462-6.928,36.123,36.123,0,0,1,1.2-6.743,41.054,41.054,0,0,1,6.1-12.008,48.148,48.148,0,0,1,4.433-4.9Q259.753,41.367,262.338,39.333ZM252.177,204.674a53.379,53.379,0,0,1,5.912-9.791,39.977,39.977,0,0,0-6.466,9.606,31.287,31.287,0,0,0-2.4,5.266q-.923,2.679-1.848,5.634-.554,2.957-.923,5.819t-.554,5.819a38.013,38.013,0,0,0,.092,5.912q.276,2.958.646,5.912a47.841,47.841,0,0,1-.369-5.912q0-2.952.185-5.912t.646-5.819q.463-2.861,1.2-5.634A38.466,38.466,0,0,1,252.177,204.674ZM261.23,45.8q1.48-1.291,2.956-2.4t2.955-2.216q-1.662.926-3.233,1.939a27.1,27.1,0,0,0-3.048,2.31,58.965,58.965,0,0,0-5.172,5.542,25.393,25.393,0,0,0-3.511,6.465,23.019,23.019,0,0,0-1.2,3.418,23.436,23.436,0,0,0-.647,3.788,31.4,31.4,0,0,1,2.4-7.021,32.305,32.305,0,0,1,1.662-3.232,33.921,33.921,0,0,1,2.032-3.049,35.127,35.127,0,0,1,2.31-2.771Q259.939,47.28,261.23,45.8Zm23.831,133.566a3.135,3.135,0,0,0-.092-.739,3.753,3.753,0,0,1-.093-.924,6.19,6.19,0,0,0-.923.739,2.831,2.831,0,0,0-1.386,1.109,4.714,4.714,0,0,1-1.2,1.293,24.025,24.025,0,0,0-2.586,1.847c-.739.618-1.539,1.293-2.4,2.033q-1.11,1.108-2.218,2.124a27.407,27.407,0,0,0-2.217,2.309q-1.476,1.3-2.863,2.494a10.564,10.564,0,0,0-2.309,2.864c0,.124-.029.184-.093.184s-.092.064-.092.185q-.923.927-1.663,1.663a4.653,4.653,0,0,0-1.108,2.032l-.554.554a3.183,3.183,0,0,0-.924,1.847,1.259,1.259,0,0,1-.092.555,1.3,1.3,0,0,0-.093.554,17.088,17.088,0,0,1-.923,2.494,17.6,17.6,0,0,0-.924,2.494,4.727,4.727,0,0,1-1.109,2.4,8.278,8.278,0,0,0-.923,1.662,7.126,7.126,0,0,0-.462,2.032q-.09,1.109-.277,2.217a2.62,2.62,0,0,0-.185,1.108,16.592,16.592,0,0,0-.646,2.772q-.092.927-.093,2.956v.553a1.733,1.733,0,0,1,0,1.571,2.771,2.771,0,0,0-.369,1.385c-.121,1.109-.246,2.189-.37,3.234s-.245,2.124-.369,3.232a1.3,1.3,0,0,0,.092.555,1.252,1.252,0,0,1,.093.554,3.146,3.146,0,0,1-.185,1.293,3.473,3.473,0,0,0-.37,1.57,8.88,8.88,0,0,1-.184,1.755q-.183,1.476-.462,2.956a9.587,9.587,0,0,0-.093,2.956,15.576,15.576,0,0,1-.092,1.755,16.02,16.02,0,0,0-.092,1.755v1.016a1.382,1.382,0,0,0,.369,1.016,11,11,0,0,1,.554,3.51,9.1,9.1,0,0,0,.37,2.678q.372,1.2.739,2.494a4.133,4.133,0,0,0,.554,1.293,2.267,2.267,0,0,1,.37,1.294.85.85,0,0,0,.462.462.826.826,0,0,1,.461.462,3.747,3.747,0,0,0,1.108,2.031,4.845,4.845,0,0,0,.924,1.017,4.711,4.711,0,0,1,.924,1.016,3.223,3.223,0,0,0,2.4,1.847c.249,0,.494.185.74.555a3.023,3.023,0,0,0,1.293,1.478q.925.554,1.847,1.108a2.362,2.362,0,0,0,1.94.646,2.291,2.291,0,0,0,1.755-.831,1.451,1.451,0,0,0,.185-2.032,2.051,2.051,0,0,0-.37-.555,2.288,2.288,0,0,1-.37-.553c-.245-.369-.184-.864.186-1.478.124-.37.433-.433.923-.185.493,0,.8-.309.924-.924v-.554a4.3,4.3,0,0,0,.831-.093,4.179,4.179,0,0,1,.831-.091,2.806,2.806,0,0,0,2.4-2.587,2.048,2.048,0,0,0,.185-.923l.554-3.88q.372-2.591.831-4.988t1.017-4.8q.372-1.849.738-3.6t.739-3.6a16.558,16.558,0,0,0,.185-2.956q.372-3.507.831-6.835t.832-6.835q.74-6.1,1.108-12.009.372-2.585.554-5.265t.37-5.265Zm11.638.924q.736-7.02,1.386-14.133t1.016-14.317q.555-7.019,1.016-14.133t.831-14.132q.737-14.037,1.109-28.45.368-7.019.369-14.225V66.675q-.186,7.021-.369,14.224T301.5,95.124q-.186,7.025-.555,14.133t-.738,14.317q-.555,14.229-1.663,28.265-.374,7.023-.924,14.224T296.7,180.289ZM304.274,145q1.108-15.519,1.663-31.406.368-7.758.554-15.611t.184-15.61q-.372,7.76-.646,15.61t-.647,15.611q-.372,7.945-.831,15.7T303.535,145q-.554,7.76-1.109,15.61t-1.293,15.611q-1.108,15.518-2.771,31.22.922-7.76,1.755-15.517t1.755-15.519q.736-7.941,1.294-15.7T304.274,145Zm11.638-65.028q.183-5.542.185-10.993V57.992q-.186,5.542-.277,10.991t-.277,10.993q-.186,5.36-.277,10.807t-.462,10.991q-.372,10.9-.923,21.707T312.4,145.188q-.739,11.085-1.57,21.8t-1.755,21.8q-.372,5.359-.924,10.807T307.045,210.4q-.555,5.361-1.2,10.9t-1.2,10.9l2.771-21.614q.555-5.541,1.109-10.992t1.108-10.807q1.109-10.9,1.94-21.707t1.755-21.707q.736-11.085,1.2-21.892t.831-21.707q.183-5.541.277-10.991T315.912,79.976Zm-7.944,65.582q-.372,4.806-.646,9.7t-.647,9.7l-1.478,19.4q.555-4.8,1.109-9.7t.924-9.7q.368-4.8.738-9.7t.74-9.7l1.108-19.4q.555-9.6.554-19.4l-1.108,19.4q-.374,4.806-.647,9.7T307.968,145.558Z"/><path class="cls-1" d="M496.151,64.827l-.185.185a1.662,1.662,0,0,1,0,1.847,18.731,18.731,0,0,1-1.108,1.848c-.248.617-.462,1.172-.647,1.662a15.446,15.446,0,0,1-.646,1.478q-.374,1.664-1.109,1.847a1.816,1.816,0,0,0-.924,2.587q0,1.294-1.847,2.4-1.295.372-2.494.831a22.968,22.968,0,0,1-2.679.831,3.5,3.5,0,0,1-3.325-1.109q.368-1.107.554-1.846a11.265,11.265,0,0,1,.739-2.217,10.526,10.526,0,0,1,.462-1.663,10.779,10.779,0,0,0,.462-1.663,6.594,6.594,0,0,0,.185-3.51,4.126,4.126,0,0,0-.37-1.848,5.667,5.667,0,0,1-1.293-3.879A5.578,5.578,0,0,0,481,58.915a13.808,13.808,0,0,0-3.51-3.141,7.873,7.873,0,0,1-1.847-1.477c-.37-.245-.71-.49-1.016-.739s-.647-.491-1.017-.739a.545.545,0,0,0-.369-.184l-.369-.37a5.96,5.96,0,0,1-1.293-.647,5.15,5.15,0,0,0-.74-.462c-.617-.369-1.2-.739-1.754-1.108a18.367,18.367,0,0,0-1.94-1.109q-.927-.367-1.848-.739a12.726,12.726,0,0,1-1.847-.923,16.665,16.665,0,0,0-4.434-1.108q-4.251-.369-5.911,1.847l-.555.554-.554.554a3.344,3.344,0,0,1-1.478,1.108.534.534,0,0,0-.184.371l-.185.184a6.639,6.639,0,0,1-1.478,2.4.164.164,0,0,1-.185.185v.185a1.572,1.572,0,0,1,0,1.478,2.609,2.609,0,0,0-.461.554,2.725,2.725,0,0,1-.462.555,8.805,8.805,0,0,0-1.848,3.509l-.739,2.217a11.379,11.379,0,0,0-.739,2.217,8.124,8.124,0,0,1-.092,1.293,7.716,7.716,0,0,0-.093,1.294v1.108a.738.738,0,0,0,.37.738A1.765,1.765,0,0,1,445.163,70q.181.739.277,1.293a6.789,6.789,0,0,1,.092,1.108,3.557,3.557,0,0,1,.185,1.109,2.034,2.034,0,0,0,.185.924,8.409,8.409,0,0,1,.185,1.57,5.671,5.671,0,0,0,.184,1.386l.554,2.216c.122.618.214,1.109.278,1.478a8.16,8.16,0,0,1,.092,1.293,1.991,1.991,0,0,1,.37,1.108,2.042,2.042,0,0,0,.184.924,4.881,4.881,0,0,1,.185,1.479,1.383,1.383,0,0,1,0,1.662v.924a1.057,1.057,0,0,1,.369,1.108V91.06a3.965,3.965,0,0,0,0,2.4,7.154,7.154,0,0,1,.278,1.293,11.874,11.874,0,0,0,.277,1.477,7.723,7.723,0,0,0,.184,1.848v2.032a4.135,4.135,0,0,1,.185,1.293q-.372.372.37.924v.554q-.555.927.554,2.771v.74a1.652,1.652,0,0,0,.185,2.4,6.121,6.121,0,0,1,.923,1.848,6.507,6.507,0,0,0,.555,2.586c.245.248.554.554.923.923a5,5,0,0,1,.924,1.293,3.614,3.614,0,0,1,2.032,2.956c.245.248.245.37,0,.37v.739c.245.248.43.369.554.369a1.6,1.6,0,0,1,.277.37,1.365,1.365,0,0,0,.277.369.542.542,0,0,1,.185.369.744.744,0,0,0,.185.555.97.97,0,0,0,.369.462c.122.063.185.216.185.462a1.487,1.487,0,0,0,.739,1.108c.615.248.739.554.37.924a1.263,1.263,0,0,0,.184,1.478,1.224,1.224,0,0,1,.278.461,1.762,1.762,0,0,0,.461.647c.246.618.491,1.2.739,1.755s.491,1.14.739,1.755a14.764,14.764,0,0,0,.832,1.755,6.946,6.946,0,0,0,1.2,1.57l.185.37a.364.364,0,0,0,.093.277.39.39,0,0,1,.092.277v.739a7.025,7.025,0,0,1,2.032,2.772,10.435,10.435,0,0,1,.554,1.292c.121.37.306.864.554,1.478a10.673,10.673,0,0,0,2.032,3.88,1.257,1.257,0,0,1,.37.924c.245.248.369.432.369.553a1.055,1.055,0,0,0,.37.74q.181.372.554,1.108a1.678,1.678,0,0,1,.462.739,1.592,1.592,0,0,0,.462.739,2.521,2.521,0,0,1,.554.832,2.39,2.39,0,0,0,.554.831.74.74,0,0,0,.185.553,2.278,2.278,0,0,1,.369.555,1.512,1.512,0,0,1,.185.647,1.474,1.474,0,0,0,.185.646,1.678,1.678,0,0,1,.462.739,3.415,3.415,0,0,0,.277.739,2.85,2.85,0,0,1-.185,1.663,1.994,1.994,0,0,0,.092.646,2.073,2.073,0,0,1,.093.647,1.246,1.246,0,0,0,.369.924c.246.248.462.461.647.646a2.5,2.5,0,0,1,.462.646,3.249,3.249,0,0,0,.369,1.479,3.384,3.384,0,0,0,1.293,2.032,1.248,1.248,0,0,0-.369.923,2.155,2.155,0,0,1-.277.462,2.029,2.029,0,0,0-.277.462q2.585,1.109,2.586,3.325a.852.852,0,0,0,.554.924,3.871,3.871,0,0,1,.185,1.478q0-.369-.554.37a5.913,5.913,0,0,1,1.663.553c.369,0,.369.186,0,.555a4.434,4.434,0,0,0,.369,2.217l.554,2.217v1.108a1.279,1.279,0,0,0,.37,1.293q1.29.555.554,1.848a4.478,4.478,0,0,0-.554,1.477q0,.555,1.108,1.663l.739.369a2.242,2.242,0,0,0,0,2.956,2.969,2.969,0,0,1,.369,2.587q-.553,1.664.185,2.4a2.337,2.337,0,0,1,0,1.293,1.3,1.3,0,0,0,.185,1.108,3.95,3.95,0,0,1,.277.739,1.605,1.605,0,0,0,.462.739c0,.249.245.494.739.739a3.671,3.671,0,0,0,0,3.88,4.063,4.063,0,0,1,.554,2.4,6.135,6.135,0,0,1,.37,1.848,6.01,6.01,0,0,0,.369,1.846,4,4,0,0,1,0,4.065,1.994,1.994,0,0,0,.092.646,1.556,1.556,0,0,1,.093.462q1.29.927.554,1.663c-.369.37-.309.739.185,1.109a4.42,4.42,0,0,1,.184,2.77,1.849,1.849,0,0,0,.37,2.217.532.532,0,0,1-.37.186.163.163,0,0,0-.184.184l-.37.369a2.093,2.093,0,0,1-.554.369q1.476,2.037,1.108,3.511a4.772,4.772,0,0,0,.185,1.478,1.62,1.62,0,0,0,.185.739v1.108a1.15,1.15,0,0,1-.462.278,4.121,4.121,0,0,0-.831.462c-.249,0-.494.248-.739.738a3.234,3.234,0,0,0-.37.924c0,.248-.248.618-.739,1.108-.369.248-.369.434,0,.555a6.869,6.869,0,0,1,.185,2.586,3.751,3.751,0,0,0-.185,1.2v1.2a7.816,7.816,0,0,1-.369,1.294l-.739.738c-.124.371-.124.616,0,.74.121.369-.064.614-.554.739-.618.245-.678.614-.185,1.108.245.369.245.675,0,.923a2.725,2.725,0,0,0-.739,1.294,2.873,2.873,0,0,1-.739.831,6.978,6.978,0,0,0-1.108,1.2,2.3,2.3,0,0,1-.278.462,1.942,1.942,0,0,0-.276.461.837.837,0,0,1-.093.37.792.792,0,0,0-.093.369c0,.246-.248.616-.738,1.109-.248.245-.37.431-.37.555l-.923.369q-.741.736-.74.369c0,.122-.184.277-.554.462a8.649,8.649,0,0,0-1.293.832l-.554.369a1.471,1.471,0,0,1-.554.184.163.163,0,0,0-.185.185.546.546,0,0,1-.369.185A3.717,3.717,0,0,0,472.135,254a6.528,6.528,0,0,1-2.217,2.587,4.36,4.36,0,0,1-1.109.831,3.464,3.464,0,0,0-.923.646c-.37.247-.711.492-1.016.74a3.951,3.951,0,0,0-.832.924,4.465,4.465,0,0,0-1.847.739,2.8,2.8,0,0,1-1.478.923,1.247,1.247,0,0,0-.924.37,7.959,7.959,0,0,1-2.032,1.293,8.7,8.7,0,0,1-1.847,1.108,5.95,5.95,0,0,1-1.478,1.109q-.927.368-2.125.831T452,267.116q-1.108.368-2.217.831t-2.032.831a7.526,7.526,0,0,1-2.586.555,2.979,2.979,0,0,1-1.847.738,3.521,3.521,0,0,1-.832.278,1.571,1.571,0,0,0-.831.462,4.242,4.242,0,0,0-1.663.554q-.927.181-1.663.277a12.061,12.061,0,0,0-1.477.277,7.444,7.444,0,0,1-1.478.555,12.4,12.4,0,0,0-1.663.553,2.059,2.059,0,0,0-1.662-1.108,3.594,3.594,0,0,1-2.771,0q-1.11-.186-2.772-.554a.532.532,0,0,0-.369-.184,1.452,1.452,0,0,1-.554-.186,1.807,1.807,0,0,1-1.294-.369q-.925-.372-1.847-.831a7.258,7.258,0,0,0-1.848-.647c-.738-.249-1.417-.494-2.031-.739s-1.294-.494-2.033-.739a1.248,1.248,0,0,0-.923-.369,1.433,1.433,0,0,1-1.293-.555q-.927-.372-1.94-.738a6.808,6.808,0,0,1-1.755-.924c-.618-.494-1.2-.924-1.756-1.293s-1.14-.739-1.754-1.108l-6.466-4.989-.37-.369a2.127,2.127,0,0,1-.369-.554,1.794,1.794,0,0,0-.646-.462,1.179,1.179,0,0,1-.462-.278,29.2,29.2,0,0,1-2.956-3.879q-.741-1.108-1.386-2.032a7.322,7.322,0,0,1-1.016-2.217c-.248-.739-.462-1.449-.647-2.125s-.4-1.384-.646-2.124a16.145,16.145,0,0,1-.647-2.032,15.376,15.376,0,0,0-.646-2.032c-.121-.618-.246-1.2-.37-1.755s-.245-1.138-.369-1.755a13.354,13.354,0,0,1-.555-1.663,12.544,12.544,0,0,0-.554-1.662,6.955,6.955,0,0,1-.554-2.772q-.181-.923-.277-1.477c-.06-.37-.153-.8-.277-1.294a3.875,3.875,0,0,1,.185-1.478v-1.108a9.5,9.5,0,0,0,.554-2.956q.372-1.845.739-3.141a1.3,1.3,0,0,1,.092-.553.8.8,0,0,0,.092-.37,7.4,7.4,0,0,0,1.294-2.956,15.473,15.473,0,0,0,.554-1.57,8.307,8.307,0,0,1,.554-1.386l.37-.923q.74-.922,1.477-1.94t1.294-1.939q.736-1.11,1.57-2.125t1.755-2.124q.923-.924,1.847-1.848t2.032-1.848a19.034,19.034,0,0,1,2.033-1.755,18.961,18.961,0,0,0,2.032-1.755,6.588,6.588,0,0,0,1.293-.831,13.8,13.8,0,0,1,1.108-.832,11.942,11.942,0,0,0,1.478-1.015,13.8,13.8,0,0,1,1.109-.831,12.5,12.5,0,0,0,1.293-1.109,4.924,4.924,0,0,1,1.293-.923,30.952,30.952,0,0,0,2.956-1.848,12.464,12.464,0,0,0,1.57-.739,12.841,12.841,0,0,1,1.57-.739,13.455,13.455,0,0,1,1.571-1.016q.831-.459,1.57-.831a16.045,16.045,0,0,0,2.309-1.2,16.144,16.144,0,0,1,2.31-1.2,18.025,18.025,0,0,1,4.618-2.217,6.478,6.478,0,0,1,2.4-.923,7.843,7.843,0,0,1,1.108-.278c.37-.06.86-.153,1.478-.277a4.142,4.142,0,0,0,.923.555,1.077,1.077,0,0,1,.74.369,4.5,4.5,0,0,1-.185,1.847,5.424,5.424,0,0,0-.462.554,3.307,3.307,0,0,1-.831.739l-1.478,1.109a13.042,13.042,0,0,1,.739,1.293l-.37.184a5.334,5.334,0,0,1-2.771,2.4,7.294,7.294,0,0,0-1.755,1.015,17.631,17.631,0,0,1-1.755,1.2,3.1,3.1,0,0,1-.923.461,1.645,1.645,0,0,0-.74.462,6.8,6.8,0,0,1-1.662,1.293,11.218,11.218,0,0,0-3.326,2.217c-.493.369-1.016.771-1.57,1.2a17.487,17.487,0,0,0-1.57,1.386l-.554.555a2.1,2.1,0,0,1-.555.369,4.14,4.14,0,0,0-1.292,1.016c-.37.433-.74.832-1.109,1.2a9.3,9.3,0,0,0-1.016,1.2q-.464.648-1.016,1.386a3.589,3.589,0,0,0-.832,1.293,15.183,15.183,0,0,1-.646,1.477v.555c.615.248.739.553.369.924a1.062,1.062,0,0,1-.369.738,6.023,6.023,0,0,0-.832,1.478c-.184.494-.34.863-.461,1.109a1.148,1.148,0,0,1-.185.646,3.545,3.545,0,0,0-.37,1.016,11.017,11.017,0,0,0-.923,4.249,17.533,17.533,0,0,0-.185,2.494v2.124a4.034,4.034,0,0,0,.739,2.587q.181.739.277,1.293a6.9,6.9,0,0,1,.092,1.108,9.764,9.764,0,0,0,.185,2.217,2.6,2.6,0,0,0,.37,1.479,3.38,3.38,0,0,1,.369,2.031c0,.37.121.555.37.555a6.234,6.234,0,0,1,1.108,3.509,6.233,6.233,0,0,0,1.108,3.511v.738l.555.74c.614.245.923.553.923.923a2.455,2.455,0,0,0,.924,1.109c.491.614.924,1.169,1.293,1.662s.8,1.045,1.293,1.663a10.413,10.413,0,0,0,2.956,3.141c.121,0,.245.121.37.369l.184.184a6.278,6.278,0,0,1,2.217,1.109,5.664,5.664,0,0,0,1.847,1.294l.186.184a3.272,3.272,0,0,0,.923,1.478,9.261,9.261,0,0,1,2.217,1.108,8.887,8.887,0,0,0,2.4.924,7.667,7.667,0,0,1,4.064,2.4,7.678,7.678,0,0,0,4.064,2.4,7.285,7.285,0,0,0,4.8-.555,7.117,7.117,0,0,1,1.294-.739c.859,0,1.293-.369,1.293-1.109,0-.369.306-.553.923-.553a7.394,7.394,0,0,0,3.51-1.848,7.316,7.316,0,0,0,1.016-1.293,8.234,8.234,0,0,1,1.2-1.478c.122-.248.246-.494.37-.739s.245-.494.369-.739a1.877,1.877,0,0,0,.462-.646,1.779,1.779,0,0,1,.462-.647,8.231,8.231,0,0,0,1.478-3.51,11.652,11.652,0,0,0,.554-3.7,30.922,30.922,0,0,0,.462-3.972q.09-1.94.092-3.971-.186-2.033-.277-3.88a30.536,30.536,0,0,0-.462-3.88q-.186-.921-.277-1.755a15.538,15.538,0,0,1-.092-1.755,9.959,9.959,0,0,0-.093-1.386,11.076,11.076,0,0,1-.092-1.57,5.567,5.567,0,0,1-.185-1.662,3.579,3.579,0,0,0-.554-1.848,8.857,8.857,0,0,1-.554-2.586,8.034,8.034,0,0,0-.093-1.293,6.583,6.583,0,0,1-.092-1.108q-.372-1.476-.739-3.326-.186-.921-.277-1.755c-.064-.554-.156-1.137-.277-1.755a3.661,3.661,0,0,1-.554-2.217,7.317,7.317,0,0,1-.739-2.217,4.474,4.474,0,0,1-.462-1.385,7.309,7.309,0,0,0-.462-1.571c-.124-.49-.248-.984-.369-1.477s-.248-.984-.37-1.479a2.734,2.734,0,0,1-.739-2.031,8.3,8.3,0,0,1-.277-1.016c-.064-.306-.156-.708-.277-1.2l-2.217-5.543c-.248-.614-.493-1.293-.739-2.032s-.493-1.538-.739-2.4q-.372-.921-.831-2.124t-.831-2.125a11.629,11.629,0,0,1-.462-1.109c-.185-.49-.4-1.045-.647-1.662q-.925-2.217-1.662-4.619-.373-1.107-.832-2.217t-1.016-2.216a4.36,4.36,0,0,1-.554-1.848c-.124-.49-.309-1.109-.554-1.847a12.177,12.177,0,0,1-1.848-3.14,6.97,6.97,0,0,1-.554-1.479,13.659,13.659,0,0,0-.554-1.662,16.347,16.347,0,0,1-1.478-2.956,8.55,8.55,0,0,0-1.663-3.141q-.925-1.844-1.847-3.787a23.463,23.463,0,0,1-1.478-3.972,3.979,3.979,0,0,0-.092-.923,2.909,2.909,0,0,1-.093-.74q-.372-1.107-.554-1.846c-.248-.492-.462-.953-.647-1.386a7.95,7.95,0,0,1-.462-1.57l-.554-3.326a1.773,1.773,0,0,0-.554-1.293,6.78,6.78,0,0,0-1.478-1.663,7.079,7.079,0,0,0-1.293-1.847l-4.8-5.911a7.7,7.7,0,0,0-.832-1.571,10.016,10.016,0,0,1-.831-1.385,7.7,7.7,0,0,1-.554-1.386c-.124-.43-.309-.952-.554-1.571a9.36,9.36,0,0,1-.554-1.292c-.124-.37-.309-.861-.555-1.478l-1.293-2.587a25.386,25.386,0,0,1-1.663-4.434,14.268,14.268,0,0,1-.646-2.124,14.827,14.827,0,0,0-.647-2.125q-.372-1.476-.739-2.678t-.739-2.494c-.248-.985-.461-1.876-.646-2.679s-.4-1.631-.647-2.493a23.237,23.237,0,0,1-1.016-4.342q-.277-2.121-.462-4.156V80.53a3.155,3.155,0,0,1-.184-1.294,18.845,18.845,0,0,1-.37-3.694q.181-.922.277-1.755t.277-1.94q.369-1.845.924-3.695a19,19,0,0,0,1.478-3.694,14.518,14.518,0,0,0,.739-1.663,12.9,12.9,0,0,1,.924-1.848,13.964,13.964,0,0,0,1.662-3.325,9.644,9.644,0,0,1,.924-1.755q.554-.831,1.108-1.755a14.946,14.946,0,0,1,4.065-4.618,22.378,22.378,0,0,1,3.325-3.049q1.845-1.386,4.249-2.863a4.317,4.317,0,0,1,1.108-.554,11.967,11.967,0,0,0,1.294-.739,1.077,1.077,0,0,1,.739-.185,5.528,5.528,0,0,1,2.771-1.478A13.272,13.272,0,0,1,435,40.072q.736-.181,1.478-.37.555-.553,3.51-.923a9.026,9.026,0,0,1,1.016-.277,8.344,8.344,0,0,0,1.016-.277c.37-.121.739-.246,1.109-.37s.739-.245,1.108-.37a3.673,3.673,0,0,1,1.663-.369,6.913,6.913,0,0,1,1.57-.554c.555-.122,1.077-.246,1.57-.37q.923-.182,1.57-.277a11.419,11.419,0,0,1,1.571-.092,7.7,7.7,0,0,0,1.293-.093,6.9,6.9,0,0,1,1.109-.091,5,5,0,0,1,2.216.184h4.065a18.032,18.032,0,0,1,3.51.369h1.478a6.547,6.547,0,0,1,1.57-.184h1.57a8.5,8.5,0,0,0,2.956.184,8.43,8.43,0,0,1,4.064,1.109,15.585,15.585,0,0,0,5.542,1.663.74.74,0,0,1,.462.092c.061.063.214.092.462.092a1,1,0,0,0,.647.37c.184,0,.338.124.462.37.369.124.707.248,1.016.369a5.8,5.8,0,0,1,1.016.555A3.017,3.017,0,0,1,487.1,42.1a2.485,2.485,0,0,0,1.293.554,4.575,4.575,0,0,1,.924.555,7.665,7.665,0,0,0,1.385.554,6.373,6.373,0,0,1,1.016.37,1.675,1.675,0,0,1,.185.738l.185.185.923.923.555.555c.983.617,1.477,1.108,1.477,1.478a2.949,2.949,0,0,0,.739,1.847,4.878,4.878,0,0,1,.185,1.478v.739a1.623,1.623,0,0,0,.185.739q0,.927.185,1.109a3.2,3.2,0,0,1-.185,1.293,1.249,1.249,0,0,0,.092.553.844.844,0,0,1,.093.371v2.4a1.033,1.033,0,0,0-.093.739,2.608,2.608,0,0,1,.093.554A9.955,9.955,0,0,1,496.151,64.827Zm-89.968,188.8q1.476,1.29,2.678,2.4t2.5,2.4q1.29,1.107,2.586,2.216c.86.739,1.663,1.478,2.4,2.217q-2.216-2.4-4.8-4.8-1.109-1.107-2.309-2.216a12.464,12.464,0,0,1-2.124-2.586q-1.295-1.482-2.4-2.587a14.488,14.488,0,0,1-2.032-2.586q-1.108-1.48-2.032-2.772t-1.847-2.77a31.476,31.476,0,0,1-3.88-12.378,21.559,21.559,0,0,1,2.956-12.747,16.539,16.539,0,0,0-2.956,6.1q-.372,1.662-.647,3.325a8.6,8.6,0,0,0,.093,3.325,27.621,27.621,0,0,0,.923,6.65c.37.988.768,1.969,1.2,2.956s.892,1.969,1.386,2.956a22.194,22.194,0,0,0,1.94,2.957q1.012,1.29,2.124,2.77a18.086,18.086,0,0,0,2.032,2.679Q405.074,252.336,406.183,253.63ZM400.271,227.4a8.911,8.911,0,0,0-.184,1.755v1.755q.182.925.277,1.755t.277,1.94q.368,1.294,1.016,2.956t1.57,3.509a5.68,5.68,0,0,0,1.016,1.663,5.748,5.748,0,0,1,1.016,1.664q.555.735,1.109,1.384c.369.431.8.953,1.293,1.571q1.476,1.662,2.864,2.956t2.863,2.771q-.741-.741-1.386-1.478c-.433-.494-.831-.988-1.2-1.478q-.739-.927-1.385-1.663a6.987,6.987,0,0,1-1.016-1.478,32.962,32.962,0,0,1-4.249-6.281,14.6,14.6,0,0,1-1.478-3.14,24.457,24.457,0,0,0-1.293-3.141A25.785,25.785,0,0,1,400.271,227.4Zm39.719-79.068q.923,2.589,2.125,5.358a58.647,58.647,0,0,1,2.124,5.726,49.066,49.066,0,0,1,2.309,5.45q1.014,2.867,2.31,5.635-.927-2.953-1.94-5.727t-1.94-5.542l-2.217-5.542q-1.109-2.772-2.216-5.727-1.3-2.772-2.31-5.45t-2.309-5.635q-1.295-2.585-2.4-5.449a40.577,40.577,0,0,0-2.587-5.45q-2.589-5.912-5.173-11.455a38.825,38.825,0,0,1-2.494-5.726q-1.017-2.954-1.939-5.912-.927-3.139-1.756-6.28a44.894,44.894,0,0,1-1.2-6.282,49.832,49.832,0,0,1-.369-13.486,44.886,44.886,0,0,0-.186,13.486,65.177,65.177,0,0,0,2.771,12.747q.924,2.957,2.033,5.911t2.4,5.727q2.584,5.914,5.172,11.454t4.895,11.085Q437.4,142.786,439.99,148.329Zm12.747,17.55q2.4,6.282,4.619,12.47t4.249,12.285q-.927-3.139-1.848-6.281t-1.847-6.281q-1.109-3.139-2.125-6.281a53.538,53.538,0,0,0-2.494-6.281q-1.295-2.953-2.4-6t-2.4-6.189q-1.295-3.138-2.4-6.189t-2.587-6.189q-1.294-3.138-2.494-6.188t-2.679-6q-3.142-6.465-5.542-12.378-1.481-3.139-2.771-6.188t-2.586-6.19a59.576,59.576,0,0,1-3.695-12.931q.555,3.324,1.386,6.558t1.755,6.373q1.29,3.144,2.4,6.281t2.4,6.282q1.476,3.142,2.863,6.188t2.864,6.19q1.29,3.143,2.586,6.095t2.771,6.1q1.108,3.144,2.4,6.188t2.586,6.19q1.291,3.144,2.494,6.188T452.737,165.879ZM446.456,120.8q-.926-2.031-1.847-4.157t-1.848-4.341a29.136,29.136,0,0,1-1.847-4.065q-.741-2.029-1.663-4.249a53.511,53.511,0,0,1-2.679-7.85A69.234,69.234,0,0,1,435,87.919a25.979,25.979,0,0,1-.277-7.851,44.7,44.7,0,0,1,1.571-7.482,58.8,58.8,0,0,0-1.663,7.667,31.765,31.765,0,0,0-.185,7.666q.369,2.035.739,4.064t.739,4.065a57.348,57.348,0,0,0,2.771,8.129q.736,2.215,1.478,4.249t1.663,4.063q.921,2.219,1.939,4.249t1.94,4.249q.923,2.037,1.94,4.158t1.94,4.34q.923,2.037,1.847,4.158t1.847,4.525q2.031,4.252,3.695,8.5t3.51,8.5q1.664,4.434,3.233,8.775t3.233,8.776a30.513,30.513,0,0,1,1.57,4.341q.647,2.313,1.386,4.526a32.148,32.148,0,0,1,1.57,4.249,41.867,41.867,0,0,0,1.57,4.434l5.543,17.549q-.555-2.029-1.2-4.249t-1.2-4.433a39.194,39.194,0,0,1-1.478-4.618,43.213,43.213,0,0,0-1.293-4.249l-2.771-8.868q-.927-2.4-1.57-4.619t-1.386-4.249q-1.664-4.432-3.325-8.774t-3.141-8.776q-1.662-4.248-3.417-8.5t-3.6-8.682Zm-11.269-11.269q.736,2.035,1.478,3.787t1.662,3.787q.736,2.035,1.478,3.879t1.663,3.7q.923,1.848,1.755,3.694t1.755,3.88q.736,2.034,1.478,3.879a35.974,35.974,0,0,0,1.847,3.88q.736,1.848,1.478,3.7t1.478,3.879q.736,2.034,1.478,3.88t1.663,3.879l6.281,15.149q-1.295-3.695-2.679-7.575t-2.863-7.759q-.741-2.029-1.386-3.879t-1.57-3.88q-.741-2.03-1.478-3.88t-1.663-3.879q-.927-1.843-1.755-3.695t-1.57-3.879q-.927-2.031-1.755-3.88a35.756,35.756,0,0,0-1.94-3.694q-.927-1.845-1.755-3.7t-1.755-3.695q-.925-2.031-1.662-3.787T435.187,109.534Zm50.988,113.8v.185h.185v-.185Z"/><path class="cls-1" d="M667.956,72.032q.736,9.422-1.94,14.871a22.606,22.606,0,0,1-6,8.036,19.286,19.286,0,0,1-9.236,3.88,56.352,56.352,0,0,0,6.465-13.671,29.133,29.133,0,0,0,.924-5.542,13.674,13.674,0,0,0-.647-5.265,11.845,11.845,0,0,0-2.955-4.618,15.245,15.245,0,0,0-5.82-3.418,28.837,28.837,0,0,0-7.944-.739q-5.727,0-13.947.647t-18.382,1.57q-10.162.926-21.429,2.032a33,33,0,0,1-7.02,0,36.725,36.725,0,0,0-7.39,0q-8.313.927-17.088,1.663T537.9,73.141a1.635,1.635,0,0,0-.185.738,5.065,5.065,0,0,0-.277.646,5.532,5.532,0,0,1-.277.648,5.717,5.717,0,0,0-.554,2.586.73.73,0,0,1-.093.462.376.376,0,0,0-.092.277l-.37.738a1.6,1.6,0,0,0-.554,1.109,1.506,1.506,0,0,0-.369,1.108,8.369,8.369,0,0,1-1.293,2.772,7.113,7.113,0,0,0-1.478,4.249,8.016,8.016,0,0,1-.093,1.293,6.583,6.583,0,0,0-.092,1.108,6.772,6.772,0,0,0-.277,1.2,7.137,7.137,0,0,1-.277,1.2,1.868,1.868,0,0,0-.369,1.017,3.3,3.3,0,0,1-.185,1.016L530.51,97.9v.553l-2.771,11.823v.924a1.068,1.068,0,0,1-.369.74,5.662,5.662,0,0,0-.739,2.216v3.88a.738.738,0,0,1-.092.462.372.372,0,0,0-.093.277v.554a10.165,10.165,0,0,1,.37,2.217,8.6,8.6,0,0,1-.093,1.2,8.355,8.355,0,0,0-.092,1.2l-.185.185-3.51,19.028v.185c-.124.618-.216,1.14-.277,1.57s-.156.9-.277,1.386a7.847,7.847,0,0,0-.37,2.771v1.293a2.955,2.955,0,0,0-.369,1.293.531.531,0,0,1-.185.369v2.5a4.386,4.386,0,0,1-.369,1.57q-.555,7.023-1.109,15.148-.372,4.252-.554,8.591t-.185,8.775q-.186,9.054,0,18.1.181,4.434.462,8.683t.832,8.313q.554,4.067,1.293,7.667t1.662,6.743a25.186,25.186,0,0,0,4.8,10.16,1.45,1.45,0,0,1,.923-.184c.246-.124.491,0,.739.369l.554.555.37.369.37.184q0,.738,1.108,1.294a20.154,20.154,0,0,1,4.8,1.662,9.468,9.468,0,0,1-2.586-.184,2.2,2.2,0,0,0,2.586.184,11.334,11.334,0,0,0,4.988-3.694l1.108-1.663a11.124,11.124,0,0,1,1.293-1.662,17.47,17.47,0,0,0,1.386-2.032,15.939,15.939,0,0,1,1.571-2.217q.735-1.108,1.385-2.217t1.385-2.4a4.971,4.971,0,0,1,.924-1.293,1.638,1.638,0,0,0,.462-.739,1.625,1.625,0,0,1,.462-.739l2.771-5.542a3.4,3.4,0,0,0,.277-.924,1.642,1.642,0,0,1,.462-.923,2.956,2.956,0,0,0,.462-1.017,2.856,2.856,0,0,1,.462-1.016,1.062,1.062,0,0,1,.369-.739,6.954,6.954,0,0,0,1.478-2.217q.369-.735,1.108-2.586.736-2.031,1.386-4.249t1.385-4.249q.736-2.217,1.386-4.341t1.386-4.341q.368-1.477.831-3.141t1.016-3.141q.369-1.662.832-3.233t1.016-3.232a13.16,13.16,0,0,0,.276-1.479,4.525,4.525,0,0,1,.462-1.477,10.639,10.639,0,0,1,1.109-3.141,10.594,10.594,0,0,0,.554-1.848q.181-.921.37-1.846a10.009,10.009,0,0,1,.369-2.217,11.2,11.2,0,0,1,.739-2.217,5.8,5.8,0,0,1,.369-1.663,15.122,15.122,0,0,1,.37-1.663.373.373,0,0,1,.092-.276.379.379,0,0,0,.092-.278,1.639,1.639,0,0,1,.185-.739,7.339,7.339,0,0,1,.924-2.4,10.441,10.441,0,0,0,.554-1.293c.122-.371.306-.861.555-1.479v1.294a4.245,4.245,0,0,0-.555,1.662v1.663a11.429,11.429,0,0,1-.092,1.571q-.1.648-.277,1.57a12.482,12.482,0,0,0-.278,1.477,13.06,13.06,0,0,1-.276,1.478.536.536,0,0,0-.185.37.372.372,0,0,1-.093.276.381.381,0,0,0-.092.278,2.125,2.125,0,0,0,.37,1.478,2.915,2.915,0,0,1,.369,2.032,17.24,17.24,0,0,0-.924,6.281l-.185.37a4.919,4.919,0,0,0-.554,2.217,10.3,10.3,0,0,0-.369,2.4,6.973,6.973,0,0,0-.462,1.57q-.095.649-.277,1.386a4.349,4.349,0,0,0-.369,1.57v2.124a9.494,9.494,0,0,0-.555,2.956c-.124.619-.216,1.141-.277,1.571s-.156.894-.277,1.386a4.088,4.088,0,0,0-.369,1.846,4.3,4.3,0,0,1-.093.832,4.186,4.186,0,0,0-.092.831,4.6,4.6,0,0,0-.554,2.033q-.187.553-.554,2.032a6.784,6.784,0,0,0-.185,1.662,1.75,1.75,0,0,0,.739,1.478,15.733,15.733,0,0,0-1.663,4.249q-.372,1.108-.831,2.217c-.309.738-.586,1.417-.832,2.032a2.892,2.892,0,0,0-.462,1.016,2.96,2.96,0,0,1-.461,1.017,15.342,15.342,0,0,0-1.478,3.879c-.124.494-.309,1.108-.554,1.847a15.615,15.615,0,0,0-.555,1.571q-.186.648-.554,1.57a11.348,11.348,0,0,0-.924,2.956,3.137,3.137,0,0,0-.462.923,1.635,1.635,0,0,1-.461.739l-1.109,1.663-1.108,1.662q-.741,1.108-1.386,2.31a24.02,24.02,0,0,1-1.57,2.494c-.369.245-.554.49-.554.738a1.075,1.075,0,0,1-.37.739.525.525,0,0,0-.184.37c0,.122-.032.185-.093.185s-.092.061-.092.185a4.66,4.66,0,0,0-1.016.924c-.309.369-.586.674-.831.923s-.526.554-.832.923a4.835,4.835,0,0,1-1.016.924c-.863.739-1.417,1.23-1.663,1.479a7.428,7.428,0,0,1-.738.646,6.425,6.425,0,0,0-.74.647.961.961,0,0,0-.461.369,1.626,1.626,0,0,1-.278.37,2.735,2.735,0,0,0-.738.554l-2.771,1.663a10.423,10.423,0,0,0-1.478,1.108l-1.663.554a2.88,2.88,0,0,0-1.108.739,12.026,12.026,0,0,0-1.571.739c-.433.245-.831.49-1.2.738q-.74.369-1.385.647c-.433.186-.9.4-1.386.646a15.36,15.36,0,0,1-5.172.74,17.877,17.877,0,0,1-11.269-3.879,10.948,10.948,0,0,1-1.478-1.11,7.291,7.291,0,0,0-.739-.646,6.529,6.529,0,0,1-.739-.647,6.431,6.431,0,0,1-1.478-1.846,1.636,1.636,0,0,1-.462-.739,1.649,1.649,0,0,0-.462-.74,1.607,1.607,0,0,1-.462-.831,1.621,1.621,0,0,0-.461-.831,2.073,2.073,0,0,1-.093.647,1.994,1.994,0,0,0-.092.646,1.617,1.617,0,0,0,.369,2.032q.555.368.554,1.662a33.767,33.767,0,0,1-10.16-12.376,77.839,77.839,0,0,1-5.727-17.366,100.751,100.751,0,0,1-2.217-19.4q-.368-5.169-.369-9.883t.184-9.144a157.424,157.424,0,0,1,1.109-16.073q.372-3.508.646-6.1a40.083,40.083,0,0,1,.647-4.249l.369-2.4.74-4.619q.372-2.584.831-5.265t1.016-5.45q.553-2.583,1.016-5.264t1.016-5.451a10.168,10.168,0,0,1,.37-2.216q.372-1.478.738-2.586a38.391,38.391,0,0,1,1.663-6.466q.369-1.663.831-3.234t1.017-3.232q.368-1.845.184-2.032l2.771-11.639a.719.719,0,0,0,.462-.092.376.376,0,0,1,.277-.093,8.788,8.788,0,0,0,1.108-3.14c.246-.739.491-1.507.74-2.31s.49-1.631.738-2.493q1.478-5.171,2.956-10.254t3.141-9.883q-8.868.927-17.273,1.571t-16.719,1.385a1.208,1.208,0,0,1-1.478-.647,1.048,1.048,0,0,0-1.293-.646q-2.585.186-4.988.37t-4.8.369a20.225,20.225,0,0,0-2.587.369q-2.031.373-4.249.832t-4.249.831a19.585,19.585,0,0,1-2.586.369q-24.2,2.035-38.333,1.848t-21.338-1.663q-7.019-1.29-9.976-3.879a11.545,11.545,0,0,1-3.787-5.912,20.423,20.423,0,0,1-.462-7.02,71.6,71.6,0,0,0,.37-7.2q1.848,5.173,11.454,8.5A57.834,57.834,0,0,0,404.8,67.321a127.506,127.506,0,0,0,15.056,1.386q8.868.372,20.876-.186t27.526-2.4Q481,64.644,494.486,63.257t27.342-2.679q1.662-4.988,3.233-9.052t2.678-7.205q1.292-3.507,2.587-6.466,7.018-.736,10.715.832a8.77,8.77,0,0,1,4.987,4.71,13.234,13.234,0,0,1,.647,7.206,50.383,50.383,0,0,1-1.939,7.943q23.831-1.664,45.814-2.31a377.558,377.558,0,0,1,39.073.648q17.085,1.293,27.433,4.9T667.956,72.032Zm-136.337-4.8q8.495-.922,16.811-1.478t16.627-.924q-8.314,0-16.719.462t-16.719,1.386q-8.313.926-16.719,1.846t-16.719,2.033q-8.495,1.109-16.811,2.032t-16.811,1.663q-8.5.925-16.9,1.386t-17.088.276q8.685.372,17.088.093t16.9-1.017q8.5-.735,16.9-1.662t16.718-2.032q8.495-.923,16.811-2.032T531.619,67.229Zm-75,3.325,5.173-.369A13.859,13.859,0,0,0,464.374,70l2.587-.185,5.172-.37q1.295-.181,2.586-.277t2.587-.276q5.174-.369,10.345-1.017T498,66.675L508.342,65.2l5.172-.553,5.173-.74q1.291-.182,2.587-.277t2.586-.276l5.172-.74a9.646,9.646,0,0,0,1.386-.092,8.607,8.607,0,0,1,1.2-.092l2.586-.37,5.358-.554-5.358.369-2.586.185a8.124,8.124,0,0,0-1.293.092,7.716,7.716,0,0,1-1.294.093l-5.172.554q-1.481.186-2.679.277t-2.494.278l-5.173.553-5.172.74L498,65.751q-5.355.739-10.437,1.386t-10.253,1.2l-5.173.555-5.172.553-2.587.37a8.151,8.151,0,0,0-1.293.092,7.679,7.679,0,0,1-1.293.093Zm43.044,83.317q.372-2.215.739-4.342t.739-4.341q1.108-8.313,2.771-17.18-1.109,4.434-1.94,8.682t-1.57,8.5a145.984,145.984,0,0,0-2.217,17.181,70.081,70.081,0,0,0-.554,8.683q-.182,2.215-.277,4.433t-.093,4.249V186.2a13.7,13.7,0,0,0,.185,2.217v4.434c0,.618.032,1.294.093,2.032s.156,1.478.277,2.217a13.7,13.7,0,0,1-.185-2.217v-6.466c0-.738.032-1.478.092-2.217s.093-1.414.093-2.032v-4.434q.186-8.681,1.108-17.365.186-2.03.37-4.249T499.659,153.871Zm5.542-6.466q.368-2.215.647-4.526t.646-4.711a81.032,81.032,0,0,0-1.662,9.237q-.372,2.4-.647,4.711t-.646,4.527q-.373,2.588-.554,4.9t-.37,4.525a82.117,82.117,0,0,0-.554,9.422,160.092,160.092,0,0,0,0,18.844,75.955,75.955,0,0,0,.554,9.422q.181,2.4.37,4.71t.554,4.526a74.326,74.326,0,0,1-.554-9.236q-.186-2.219-.278-4.526t-.092-4.9q-.186-2.4-.185-4.711v-4.711q0-2.215.093-4.526t.276-4.9a74.539,74.539,0,0,1,.555-9.236q.182-2.4.277-4.619a47.448,47.448,0,0,1,.462-4.8Zm2.956,11.454a29.189,29.189,0,0,1,.554-5.727A16,16,0,0,0,508.25,156q-.1,1.385-.278,2.863a16.1,16.1,0,0,0-.462,2.771q-.094,1.294-.276,2.771a33.179,33.179,0,0,0-.555,5.727q0,1.481-.092,2.863c-.064.924-.093,1.88-.093,2.864l-.184,5.727.184,5.727q0,5.915.554,11.454V181.582l.186-5.727c0-.984.028-1.908.092-2.771s.092-1.784.092-2.772a29.194,29.194,0,0,1,.554-5.726c0-.984.029-1.94.093-2.863S508.157,159.847,508.157,158.859Zm10.161-32.883-1.478,6.1-1.478,6.1-1.108,6.281-.924,6.281q-.555,3.144-.831,6.189t-.647,6.189q-.372,3.144-.554,6.282t-.37,6.28q-.186,3.144-.185,6.281v6.281q0,6.469.555,12.563l.554,6.281.554,6.281.924,6.1.924,6.281-.74-6.281-.738-6.1-.555-6.281-.369-6.281q-.553-12.375,0-25.125,0-6.279.554-12.377.369-3.14.647-6.281t.831-6.282l.924-6.281,1.108-6.095,1.109-6.282Z"/><path class="cls-1" d="M686.8,162.185a9.494,9.494,0,0,1-2.217,6.65,31.03,31.03,0,0,1-3.14,3.694q-1.664,1.663-3.326,3.511c-.369.369-.554.617-.554.738a3.743,3.743,0,0,1-1.016,1.479,8.1,8.1,0,0,0-1.2,1.293,8.063,8.063,0,0,1-1.2,1.293,8.137,8.137,0,0,0-1.2,1.293,5.448,5.448,0,0,1-1.848,1.478,9.972,9.972,0,0,0-3.694,4.618,11.854,11.854,0,0,1-2.4,3.51q-1.482,1.109-2.771,2.125a8.728,8.728,0,0,0-2.217,2.679,20.639,20.639,0,0,0-2.032,1.939,13.911,13.911,0,0,1-2.217,1.94,11.009,11.009,0,0,0-1.478,1.294,9.435,9.435,0,0,0-1.016,1.2,9.413,9.413,0,0,1-1.016,1.2l-3.326,3.325a2.979,2.979,0,0,0-.923,2.586,15.469,15.469,0,0,1-.185,2.31,14.2,14.2,0,0,1-.554,2.309,6.043,6.043,0,0,0-.37,1.847q0,1.294-.092,2.4t-.277,2.217v1.478c0,.739-.032,1.51-.092,2.309a4.815,4.815,0,0,1-.832,2.309,4.531,4.531,0,0,0-.462,1.478q-.095.741-.277,1.663a20.187,20.187,0,0,0-.461,3.326A20.986,20.986,0,0,1,643.94,237v.369a3.059,3.059,0,0,0-.739,1.939,13.192,13.192,0,0,1-.185,2.125c-.124.491-.248.953-.369,1.386s-.249.892-.37,1.385a8.972,8.972,0,0,0-.739,3.695v.369a13.636,13.636,0,0,0-.554,2.31,14.171,14.171,0,0,1-.555,2.309.835.835,0,0,1-.092.37.791.791,0,0,0-.092.369,4.332,4.332,0,0,0-.924,2.032,14.849,14.849,0,0,1-.554,2.217,1.813,1.813,0,0,1-.369,1.293,5.239,5.239,0,0,0-1.016,2.032,7.462,7.462,0,0,1-.832,2.032,4.129,4.129,0,0,0-.554,1.2,8.375,8.375,0,0,1-.554,1.386,5.912,5.912,0,0,0-.831,2.493A13.194,13.194,0,0,0,634.7,271a3.96,3.96,0,0,0-1.478,1.848,5.239,5.239,0,0,1-.462,1.016c-.185.306-.34.583-.462.831a1.5,1.5,0,0,0-.277,1.109,6.789,6.789,0,0,1,.092,1.108,7.36,7.36,0,0,1-.738,1.662,19.5,19.5,0,0,0-3.326,4.989,26.328,26.328,0,0,1-1.478,2.309c-.493.675-.987,1.386-1.478,2.124-.248.491-.493.739-.739.739a4.524,4.524,0,0,0-1.477,2.033,4.111,4.111,0,0,1-.647,1.57q-.463.645-1.016,1.386a3.012,3.012,0,0,1-.739.553,2.764,2.764,0,0,0-.739.555l-3.325,2.771a.325.325,0,0,0-.37.37q-.555.735-1.108,1.385a5.49,5.49,0,0,0-.924,1.57,9.225,9.225,0,0,0-.739.832,4.147,4.147,0,0,1-.924.831,3.369,3.369,0,0,0-1.385.924,3.458,3.458,0,0,1-1.386.924l-.369.369a13.565,13.565,0,0,1-1.2,1.385,4.687,4.687,0,0,1-1.57,1.016,2.492,2.492,0,0,1-1.016,1.293c-.434.246-.832.491-1.2.739-.494.369-.924.707-1.294,1.016s-.8.647-1.293,1.017c-.124,0-.309.121-.554.369a5.709,5.709,0,0,0-2.032.739c-.618.369-1.232.739-1.847,1.108a7.349,7.349,0,0,1-2.587.924,3.733,3.733,0,0,0-2.032.739,5.233,5.233,0,0,1-3.14,1.293,5.911,5.911,0,0,0-1.478.37,9.428,9.428,0,0,1-4.249.184,1.417,1.417,0,0,1-.277-.369,1,1,0,0,0-.462-.369,12.542,12.542,0,0,0-.739-1.294,4.844,4.844,0,0,0-1.108-1.109,4.309,4.309,0,0,1-.647-.831,4.274,4.274,0,0,0-.647-.831q-.741-1.481-1.477-2.678t-1.478-2.679a30.124,30.124,0,0,1-3.141-10.161,90.142,90.142,0,0,1-.554-9.976,22.867,22.867,0,0,1,.277-5.45q.459-2.679,1.016-5.265a16.476,16.476,0,0,1,1.108-3.509q.736-1.663,1.478-3.326a37.7,37.7,0,0,1,2.587-4.988q1.476-2.4,2.955-4.8.736-1.107,1.386-2.216a16.048,16.048,0,0,1,1.57-2.217,23.776,23.776,0,0,1,2.771-3.6q1.478-1.57,2.956-3.232a2.839,2.839,0,0,0,.462-.555,2.532,2.532,0,0,1,.462-.554,42.11,42.11,0,0,1,4.988-5.542,22.491,22.491,0,0,0,2.4-2.4,8.107,8.107,0,0,0,1.294-1.2,4.135,4.135,0,0,1,1.293-1.017,26.451,26.451,0,0,0,3.694-3.232q1.663-1.754,3.51-3.6,2.217-2.216,4.434-4.34t4.434-4.342q1.29-1.291,2.494-2.4a28.664,28.664,0,0,0,2.309-2.4c.245-.121.37-.245.37-.369a.163.163,0,0,1,.184-.185,3.719,3.719,0,0,0,1.478-1.663,9.909,9.909,0,0,0,.555-2.031q.182-1.476.276-3.141t.278-3.326l1.108-12.746.554-3.326a27.75,27.75,0,0,0,.739-4.525q.183-2.309.37-4.711l1.108-8.314a8.355,8.355,0,0,1,.092-1.2,8.6,8.6,0,0,0,.093-1.2,2.094,2.094,0,0,0-.185-.924,2.873,2.873,0,0,0-1.478,1.663,7.3,7.3,0,0,1-1.016,1.755q-.649.831-1.385,1.755a4.3,4.3,0,0,0-.554.646,4.545,4.545,0,0,1-.555.647q-.925,1.481-1.847,2.678t-1.847,2.495a3.624,3.624,0,0,1-1.663,1.662,2.164,2.164,0,0,0-.554.37,2.11,2.11,0,0,1-.554.369,3.8,3.8,0,0,1-1.479.739,2.542,2.542,0,0,0-2.032,1.478c-.369.618-.738,1.2-1.108,1.755a9.518,9.518,0,0,0-.924,1.755,22.774,22.774,0,0,0-2.032,2.4,7.754,7.754,0,0,0-1.293,2.032c-.37.493-.71.955-1.016,1.385a3.013,3.013,0,0,1-1.386,1.016l-.369.37a4.969,4.969,0,0,1-2.217,2.032,13.827,13.827,0,0,0-2.586,1.477,8.854,8.854,0,0,1-2.679,1.017,13.527,13.527,0,0,0-2.679.831,9.8,9.8,0,0,1-2.217.185l-5.542-.554a13.26,13.26,0,0,1-2.4-.555c-.739-.245-1.542-.49-2.4-.738a8.6,8.6,0,0,1-4.249-3.325q-1.48-2.032-2.679-4.065t-2.494-4.064a15.4,15.4,0,0,1-1.016-2.032c-.308-.74-.586-1.414-.831-2.033a4.124,4.124,0,0,1-.554-1.2,4.334,4.334,0,0,0-.555-1.2,19.787,19.787,0,0,1-1.293-5.173q-.186-1.476-.369-2.956t-.369-2.955q-.187-2.217-.278-4.435t-.092-4.618v-5.726q.181-2.032.277-4.249t.277-4.249q.182-2.219.37-4.342t.554-4.156l.554-5.542q.182-1.478.369-3.049t.37-3.048l.554-3.88v-.831c0-.306-.248-.583-.739-.831a2.093,2.093,0,0,1,.37-.555.753.753,0,0,0,.185-.553,17.54,17.54,0,0,1,2.4-5.542,4.724,4.724,0,0,1,2.586-2.033,3.445,3.445,0,0,1,.924-.277,1.648,1.648,0,0,0,.924-.462,19.714,19.714,0,0,1,2.4-.739,2.26,2.26,0,0,0,1.663-.554,2.917,2.917,0,0,1,1.2-.462,8.76,8.76,0,0,1,1.2-.093c.86-.121,1.662-.212,2.4-.276s1.478-.093,2.217-.093a18.032,18.032,0,0,1,2.679.185,4.753,4.753,0,0,1,2.309,1.108q1.109.741,2.309,1.386t2.494,1.386c.122.738.277,1.51.462,2.308a4.937,4.937,0,0,1-.092,2.5,1.249,1.249,0,0,0-.093.832,4.332,4.332,0,0,1,.093.831,1.915,1.915,0,0,1-.185,1.847,5.705,5.705,0,0,0-.739,2.031q-.186,1.11-.369,2.218a6.526,6.526,0,0,1-.924,2.4,5.41,5.41,0,0,0-1.109,3.325,4.475,4.475,0,0,1-.738,2.77,3.013,3.013,0,0,0-.74,2.218q-.186,1.107-.276,2.309a6.227,6.227,0,0,1-.647,2.309v.185a5.7,5.7,0,0,1-.37,2.863,22.134,22.134,0,0,0-.923,2.863,2.056,2.056,0,0,0-.185.924,2.068,2.068,0,0,1-.185.924q0,1.848-.092,3.51t-.093,3.511a5.569,5.569,0,0,0-.184,1.662,1.939,1.939,0,0,0,0,1.663,15.47,15.47,0,0,1-.185,2.77,12.165,12.165,0,0,0,.185,2.587,5.8,5.8,0,0,1,.092,1.755,15.576,15.576,0,0,0-.092,1.755,10.055,10.055,0,0,1-.092,1.386,3.526,3.526,0,0,0,.092,1.385,9.439,9.439,0,0,1,.369,2.586,18.086,18.086,0,0,0,.185,2.586,13.211,13.211,0,0,1,.185,2.125,12.7,12.7,0,0,0,.185,2.124.744.744,0,0,0,.184.555q.555.926,1.109,1.939a13.29,13.29,0,0,1,.923,2.125,6.115,6.115,0,0,1,1.109,3.879q-.374.374,0,.555a3.95,3.95,0,0,1,.277.739,3.434,3.434,0,0,0,.277.739,1.059,1.059,0,0,0,1.016.184c.306-.121.583-.245.831-.369q1.109-.735,2.125-1.477t1.94-1.479a19.729,19.729,0,0,0,2.493-2.124l2.31-2.31q2.217-2.216,4.341-4.618a24.828,24.828,0,0,0,3.6-5.357q.921-1.478,1.755-3.141a21.813,21.813,0,0,0,1.385-3.51,4.961,4.961,0,0,1,.462-1.016c.185-.306.4-.647.647-1.016q.921-2.584,2.031-5.173t2.033-5.173a16.672,16.672,0,0,1,.924-2.216,17.285,17.285,0,0,0,.923-2.217,59.612,59.612,0,0,1,2.494-5.727q1.386-2.77,2.679-5.543.735-1.844,1.478-3.6a36.161,36.161,0,0,0,1.293-3.6c.49-1.354.924-2.647,1.293-3.88s.739-2.522,1.109-3.88a42.711,42.711,0,0,0,1.478-4.063l.554-1.108a7.311,7.311,0,0,1,1.016-2.217,3.512,3.512,0,0,1,2.124-1.294c.615.124,1.23.249,1.848.37a2.2,2.2,0,0,0,1.847-.555q1.108.927,2.124,1.663a16.73,16.73,0,0,1,1.94,1.663q.736.741.554,1.108a2.726,2.726,0,0,0-.092,1.848c.185.618.4,1.232.647,1.847a3.878,3.878,0,0,1,0,2.4,8,8,0,0,0,.923,1.663,7.607,7.607,0,0,1,1.109,5.542,3.53,3.53,0,0,0-.092,1.385,10.094,10.094,0,0,1,.092,1.385v8.221a4.738,4.738,0,0,1-.37,1.756.827.827,0,0,0-.092.646,2.1,2.1,0,0,1,.092.647,11.033,11.033,0,0,0,.278,2.494q.276,1.2.461,2.493c0,.249.029.4.093.462a.749.749,0,0,1,.092.462q-.186,2.036-.277,4.249t-.093,4.433a3.034,3.034,0,0,1,0,1.479,6.835,6.835,0,0,0-.184,1.662,10.034,10.034,0,0,1-.092,1.386,9.491,9.491,0,0,0-.093,1.386c0,.739-.032,1.477-.092,2.216a7.135,7.135,0,0,1-.462,2.033,4.7,4.7,0,0,0-.37,1.754,3.426,3.426,0,0,1-.554,1.755v.37a8.5,8.5,0,0,1,.185,3.048q-.186,1.572-.37,3.048a21.316,21.316,0,0,0-.554,2.4c-.124.739-.248,1.542-.369,2.4a9.333,9.333,0,0,0-.092,2.308c.06.8.092,1.571.092,2.31a4.567,4.567,0,0,0,1.847-1.293,34.476,34.476,0,0,1,2.309-2.771,18.426,18.426,0,0,0,2.125-2.771ZM578.542,133.919q.367-3.326.739-6.558t.739-6.374q-.739,3.144-1.2,6.374t-.831,6.373q-.374,3.144-.647,6.466t-.647,6.466q-.186,3.144-.184,6.374V159.6q.181,3.142.277,6.374t.462,6.373q0-3.139-.093-6.373t-.092-6.374q0-3.326.092-6.558t.278-6.374A112.779,112.779,0,0,1,578.542,133.919Zm3.51,36.209a65.646,65.646,0,0,1-.369-6.928v-6.928q0-6.831.554-13.855a133.048,133.048,0,0,1,1.108-13.855q-.553,3.511-1.016,6.927t-.831,6.928q-.553,7.024-.554,13.855,0,3.512.092,6.928t.277,6.928q.555,7.025,1.663,13.855-.372-3.506-.554-6.927T582.052,170.128Zm40.458,61.333a.853.853,0,0,0,.092-.647,2.749,2.749,0,0,1-.092-.831,2.623,2.623,0,0,1-.554.462,1.531,1.531,0,0,0-.37.278,20.282,20.282,0,0,1-2.309,2.308q-1.2,1.019-2.494,2.125a25.7,25.7,0,0,0-2.4,1.94,25.561,25.561,0,0,1-2.4,1.94,79.778,79.778,0,0,0-9.237,8.867q-1.295,1.478-2.494,2.679t-2.494,2.494a7.317,7.317,0,0,0-1.848,3.141,7.156,7.156,0,0,0-.646,1.2,7.521,7.521,0,0,1-.647,1.2q-.74,1.291-1.385,2.4t-1.386,2.216a10.093,10.093,0,0,0-.646,1.109,10.424,10.424,0,0,1-.647,1.108q-.927,1.476-1.847,3.049a15.313,15.313,0,0,0-1.478,3.417,1.474,1.474,0,0,0-.185.646.633.633,0,0,1-.185.462,1.906,1.906,0,0,0-.831,1.293c-.063.492-.156,1.045-.277,1.663A8.074,8.074,0,0,0,585.47,277a9.613,9.613,0,0,1-.277,1.017,5.907,5.907,0,0,0-.37,1.477q-.372,3.14-.647,6t-.461,6a6.294,6.294,0,0,0,.185,2.679,24.962,24.962,0,0,0,.923,2.494,12.389,12.389,0,0,1,.924,2.217,12.6,12.6,0,0,0,.924,2.587q.553,1.107,1.293,2.4a4.578,4.578,0,0,0,1.016,1.57,12.865,12.865,0,0,1,1.2,1.386q.736,1.107,1.2,1.2a4.607,4.607,0,0,0,1.754-.276,3.31,3.31,0,0,0,1.478-.924q.923-.741,1.663-1.386t1.478-1.386q.923-.925,1.663-1.754a5.453,5.453,0,0,0,1.108-2.31c0-.124.121-.309.37-.554.49-.739.8-1.232.923-1.477a22.362,22.362,0,0,0,1.2-2.4,8.679,8.679,0,0,1,1.385-2.216,36.412,36.412,0,0,0,2.864-4.9q1.2-2.493,2.309-5.08a93.564,93.564,0,0,0,3.787-10.53q1.567-5.36,2.864-10.715.553-2.958,1.108-5.727t1.294-5.542q.735-2.589,1.292-5.265t1.109-5.265q.367-2.217.739-4.433T622.51,231.461ZM586.3,164.771q-.186-2.031-.185-4.157v-4.157q.181-2.029.185-4.156v-4.156q.183-2.033.185-4.158t.185-4.341q-.372,2.035-.555,4.157t-.369,4.342q-.186,2.034-.185,4.156t-.184,4.156c0,1.357.028,2.742.092,4.157s.092,2.8.092,4.157q.182,2.217.37,4.341t.554,4.157Zm7.2,27.9-.739-4.434-.554-4.618L591.658,179l-.369-4.433a128.526,128.526,0,0,1-.554-18.29q0-4.615.185-9.144t.554-9.145l.554-4.618.554-4.433.739-4.62.739-4.618-.924,4.618-.923,4.435-.555,4.618L591.1,137.8A154.944,154.944,0,0,0,590,156.272a90.1,90.1,0,0,0,.092,9.145q.278,4.53.647,9.145l.554,4.619.554,4.433.739,4.618Zm31.036,70.939q1.845-4.806,3.418-9.7t3.048-9.7q1.29-4.806,2.494-9.791t2.124-9.976q.923-5.169,1.663-10.161t1.293-9.975q.367-5.171.647-10.253t.277-10.069q-.186,4.989-.647,10.069t-1.016,10.068q-.553,5.173-1.293,10.16t-1.663,9.977q-2.034,10.347-4.433,19.766-1.482,4.989-2.864,9.884T624.542,263.605Zm3.141-26.787q-.555,2.218-1.016,4.435t-1.016,4.434q.735-2.219,1.293-4.434t1.108-4.435q.555-2.215,1.108-4.34t.924-4.342q1.109-4.615,1.848-9.052t1.477-8.867q1.11-9.05,1.663-18.105.369-4.615.37-9.144t-.185-9.145q-.186,4.62-.277,9.145t-.462,8.96q-.372,4.619-.831,9.144t-1.016,8.959q-.741,4.434-1.478,8.96t-1.663,8.96q-.372,2.219-.831,4.434T627.683,236.818Zm21.06-54.5v-7.2l-.185-7.205v7.205l-.185,7.2-.184,7.389-.555,7.2a256.883,256.883,0,0,1-3.879,28.819q-1.481,7.023-3.141,14.133T636.92,254l-2.217,6.836-2.4,6.835-2.4,6.836-2.771,6.835,2.955-6.651,2.587-6.836,2.586-6.834,2.217-6.835q2.029-7.024,3.787-14.133t3.233-14.133q1.29-7.2,2.217-14.409t1.478-14.595l.369-7.2Zm-7.39,30.3q-.925,6.47-2.217,12.747l-1.108,6.1-1.478,6.281q-.741,3.14-1.385,6.19t-1.571,6.188q2.031-6.1,3.695-12.193l1.293-6.281,1.478-6.281q.553-3.14,1.016-6.281t.831-6.281a20.647,20.647,0,0,0,.462-3.233c.061-1.045.153-2.125.278-3.233q.182-1.476.276-3.141t.278-3.14a16.442,16.442,0,0,0-.462,3.14,17.06,17.06,0,0,1-.462,3.141,20.089,20.089,0,0,0-.462,3.233A16.675,16.675,0,0,1,641.353,212.618Z"/><path class="cls-1" d="M774.179,166.063a1.062,1.062,0,0,0,.185.74c.121.124.06.308-.185.554a6.783,6.783,0,0,0-.462,1.663c-.063.494-.155,1.047-.277,1.663a25.034,25.034,0,0,1-.554,2.955q-.372,1.48-.923,3.14a.818.818,0,0,1-.093.37,1.255,1.255,0,0,0-.093.554,4.8,4.8,0,0,0-.276.647c-.064.185.092.4.462.646q.735.741,0,2.032a16.7,16.7,0,0,0-1.663,6.1v.555c-.249.738-.494,1.448-.739,2.124s-.494,1.449-.739,2.309c-.249.988-.525,1.94-.832,2.864a14.682,14.682,0,0,0-.646,2.863l-.37.739q-.372,1.48-.738,2.956c-.249.987-.555,2.031-.924,3.14q-.186.927-.369,1.663t-.37,1.663a17.627,17.627,0,0,0-.647,1.939q-.278,1.017-.647,2.124a2.39,2.39,0,0,0,.186,2.957,27.585,27.585,0,0,0-2.217,4.249,28.256,28.256,0,0,1-2.217,4.249A31.043,31.043,0,0,0,757,227.582a18.492,18.492,0,0,0-1.663,3.51q-.555,1.662-1.2,3.14t-1.385,2.956a11.42,11.42,0,0,1-1.2,1.663,5.628,5.628,0,0,0-1.016,1.663,3.277,3.277,0,0,0-.832.739,7.3,7.3,0,0,1-.646.738q-.927,1.291-1.755,2.494t-1.755,2.31a6.51,6.51,0,0,0-.647.738,7.2,7.2,0,0,1-.646.739,1.389,1.389,0,0,0-.278.37,1.55,1.55,0,0,1-.277.37q-.925.921-1.94,1.847a25.834,25.834,0,0,1-2.309,1.847c-.617.491-1.171.924-1.662,1.293s-1.048.8-1.663,1.294a12.369,12.369,0,0,1-1.847,1.478,12.094,12.094,0,0,0-1.571.739q-.648.368-1.385.738a8.414,8.414,0,0,1-3.51,1.663,3.855,3.855,0,0,0-1.293.739,15.586,15.586,0,0,1-3.049,1.478q-1.57.554-3.232,1.293a18.948,18.948,0,0,1-2.679.555,20.676,20.676,0,0,1-2.679.184,18.412,18.412,0,0,1-11.639-3.88,11.385,11.385,0,0,1-1.662-1.2,7.057,7.057,0,0,0-1.478-1.017,7.026,7.026,0,0,1-1.293-1.846,12.94,12.94,0,0,0-.739-1.571c-.248-.433-.494-.832-.739-1.2q-1.849-2.589-3.6-5.357a25.559,25.559,0,0,1-2.494-4.8,6.421,6.421,0,0,0-.462-1.293c-.185-.369-.4-.863-.647-1.477a35.585,35.585,0,0,1-1.755-5.08q-.65-2.495-1.57-5.081c-.125-.615-.277-1.261-.462-1.94a21.646,21.646,0,0,1-.462-2.124,8.967,8.967,0,0,1-.924-4.064v-1.109a31.2,31.2,0,0,1-1.016-5.08q-.276-2.495-.646-5.081-.181-2.03-.37-3.787t-.369-3.6q-.369-2.769-.739-5.542t-.739-5.726q0-2.586-.185-5.173t-.369-5.173v-2.217a8.865,8.865,0,0,1-.185-2.032c.248,0,.248-.121,0-.369l-.554-17.55a17.088,17.088,0,0,0,1.293-4.064q.372-1.477.554-2.679c.124-.8.248-1.691.37-2.679q.372-3.695.923-7.389t1.478-7.39q.555-2.586.924-5.08t.554-5.081q.186-1.476.37-2.771a10.289,10.289,0,0,1,.739-2.587,27.328,27.328,0,0,0,.923-2.955q.369-1.476.739-2.956a34.13,34.13,0,0,0,1.294-5.912,29.488,29.488,0,0,1,1.293-5.726q.181-.922.369-1.662c.121-.492.245-1.045.369-1.664a44.425,44.425,0,0,0,1.756-5.819,44.235,44.235,0,0,1,1.755-5.819,29.428,29.428,0,0,0,1.293-4.249q.554-2.031,1.293-3.972t1.478-3.972q1.109-3.506,2.494-6.836t2.863-6.65q1.663-3.693,3.695-7.39a2.976,2.976,0,0,0,.462-1.015,1.6,1.6,0,0,1,.462-.831q1.29-2.953,2.678-5.82t2.864-5.45q1.845-3.507,3.51-6.835t3.7-6.651q1.476-2.585,3.233-5.172t3.417-4.8q1.109-1.476,2.125-2.586a26.08,26.08,0,0,1,2.309-2.216,11.31,11.31,0,0,0,2.309-2.217,11.261,11.261,0,0,1,2.309-2.217c.861-.491,1.724-1.017,2.587-1.57s1.662-1.077,2.4-1.571a1,1,0,0,0,.461-.37c.061-.121.214-.184.462-.184q2.585-.737,5.081-1.293a34.953,34.953,0,0,1,5.08-.74,25.933,25.933,0,0,0,3.048-.184q1.567-.181,3.417-.369h2.771a3.928,3.928,0,0,1,.924.092,1.2,1.2,0,0,0,.924-.278h.739a1.237,1.237,0,0,0,1.2.186,1.258,1.258,0,0,1,1.2.184,3.1,3.1,0,0,0,1.57.278,2.355,2.355,0,0,1,1.385.276,8.114,8.114,0,0,1,1.571.462q.645.278,1.385.646a2.207,2.207,0,0,1,1.478,1.109,2.393,2.393,0,0,0,.831.555c.307.124.462.432.462.923a1.051,1.051,0,0,0,.37.739c.245.249.491.494.739.739a1.219,1.219,0,0,1,.277.462,4.834,4.834,0,0,0,.277.646,4.288,4.288,0,0,1,.739,1.663v.924a8.637,8.637,0,0,1,.554,3.048,24.369,24.369,0,0,0,.185,3.048V20.4a20.487,20.487,0,0,0,.185,2.5,1.023,1.023,0,0,1,.369.646,1.477,1.477,0,0,0,.185.647,2.144,2.144,0,0,1,.739,1.477,8.641,8.641,0,0,1-.185,1.663,25.2,25.2,0,0,0-.554,2.863,19,19,0,0,1-.554,2.679q-.186,2.772-.37,5.266a32.381,32.381,0,0,1-.739,4.895q-.372,1.85-.831,3.6a16.8,16.8,0,0,1-1.2,3.233A23.627,23.627,0,0,1,776.212,53a27.021,27.021,0,0,0-.924,2.956q-1.482,3.7-2.864,7.574a68.351,68.351,0,0,1-3.233,7.574,49.983,49.983,0,0,0-2.309,4.434q-1.017,2.217-2.309,4.618l-.37.739a8.987,8.987,0,0,1-1.293,3.048q-.925,1.386-1.847,2.864a5.439,5.439,0,0,1-1.293,1.478,3.371,3.371,0,0,0-1.478,1.108,19.823,19.823,0,0,0-1.109,1.663q-.925,1.294-1.755,2.494a10.552,10.552,0,0,1-1.94,2.125c-.493.124-.738.369-.738.738q-1.482,1.85-2.956,3.511t-3.326,3.509a2.138,2.138,0,0,1-.276.462,2.045,2.045,0,0,0-.278.462,11.186,11.186,0,0,1-2.217,2.309q-1.295,1.019-2.771,2.309a9.741,9.741,0,0,0-1.57,1.017,17.282,17.282,0,0,1-1.755,1.2,17.614,17.614,0,0,0-1.755,1.2,17.048,17.048,0,0,0-1.57,1.386,41.312,41.312,0,0,1-4.249,3.048q-2.217,1.386-4.434,3.048a6.643,6.643,0,0,1-2.4,1.478,30.872,30.872,0,0,0-2.956,1.293l-1.848.74c-.617.248-1.293.553-2.032.922a6.5,6.5,0,0,0-.646.371,1.136,1.136,0,0,1-.647.184,15.585,15.585,0,0,0-3.233,1.109,7.119,7.119,0,0,0-2.494,1.847,9.653,9.653,0,0,0-.554,1.293c-.124.369-.309.863-.554,1.478a9.679,9.679,0,0,0-.555,1.294,4.069,4.069,0,0,0-.185,1.293,23.364,23.364,0,0,1-1.108,4.987,17.815,17.815,0,0,0-.277,2.032,18.835,18.835,0,0,1-.277,2.032,6.119,6.119,0,0,0-.092,1.848,3,3,0,0,1-.277,1.662,14.165,14.165,0,0,0-.555,3.7l-.554,2.217a26.707,26.707,0,0,0-.554,2.772q-.186,1.293-.37,2.77,0,.927-.092,1.94c-.064.678-.093,1.325-.093,1.94v.369a3.657,3.657,0,0,0-.738,2.679,9.928,9.928,0,0,1,0,2.679v1.847h-.924a2.2,2.2,0,0,0,.185,2.586,1.322,1.322,0,0,1,.184,1.109,4.109,4.109,0,0,0-.277,1.94,10.191,10.191,0,0,1-.092,2.309v3.51a3.074,3.074,0,0,1-.554,2.771c-.37.369-.433.618-.185.739a2.033,2.033,0,0,1,.092,1.571,2.636,2.636,0,0,0-.092,1.57,11.243,11.243,0,0,0,.277,1.2c.061.186.4.462,1.016.832v.185a30.769,30.769,0,0,0,.185,3.232q.181,1.758.369,3.233a2.363,2.363,0,0,1-.554,2.4,3.165,3.165,0,0,0-.185,1.293,31,31,0,0,0,.555,5.727,11.112,11.112,0,0,1,.184,2.124,13.928,13.928,0,0,0,.185,2.31q.367,2.77.739,5.449a37.949,37.949,0,0,0,1.108,5.266,4.131,4.131,0,0,1,.185,1.293,4.065,4.065,0,0,0,.185,1.293q.736,2.034,1.478,3.88c.245.617.491,1.2.739,1.755a2.86,2.86,0,0,1,.184,1.754,4.382,4.382,0,0,1,1.2,2.033q.276,1.109.646,2.216c.245.619.491,1.2.739,1.755s.491,1.141.739,1.755a1.229,1.229,0,0,1,.277.555.435.435,0,0,0,.462.369c.121,0,.306.121.554.37l.37-.37a2.6,2.6,0,0,1,.184,1.108,6.863,6.863,0,0,1,.462,1.848c.061.615.092,1.045.092,1.293l-.184.185a5.038,5.038,0,0,1,.554,2.587,3.727,3.727,0,0,0,1.478,1.015c.86.431,1.293.831,1.293,1.2.121.615.523.707,1.2.278s1.016-.341,1.016.276l.554.555a1.482,1.482,0,0,0,.37.277,1.458,1.458,0,0,1,.369.276,3.905,3.905,0,0,0,1.478,1.664q.922.554,1.848,1.108a2.476,2.476,0,0,0,2.771.184,18.041,18.041,0,0,0,3.14-1.385,6.654,6.654,0,0,0,2.4-2.309q.921-.927,1.57-1.663c.43-.493.831-.987,1.2-1.477a73.132,73.132,0,0,0,7.205-8.869q.553-.735,1.016-1.384a10.792,10.792,0,0,0,.831-1.386q1.109-1.478,1.94-2.772t1.755-2.586a19.4,19.4,0,0,0,1.016-1.939q.459-1.014.831-1.94a1.5,1.5,0,0,0,.277-.37,1.006,1.006,0,0,1,.462-.369,6.834,6.834,0,0,0,1.755-2.218q.645-1.289,1.2-2.585,2.031-4.248,3.879-8.5t3.7-8.5q1.109-3.138,2.309-6.281t2.5-6.281a20.066,20.066,0,0,0,1.2-2.955,19.637,19.637,0,0,1,1.2-2.956q.369-.923.646-1.848c.185-.614.4-1.229.647-1.847q.368-1.109.739-2.125t.739-2.309q.369-.921.646-1.662a6.028,6.028,0,0,1,.832-1.479,2.948,2.948,0,0,1,.37-1.293,27.117,27.117,0,0,1,1.108-2.586A26.849,26.849,0,0,0,774.179,166.063Zm-84.795-29.557q.555-3.507,1.293-6.836t1.478-6.835q1.477-6.651,2.956-13.3t3.325-13.117q1.845-6.833,3.88-13.578T706.75,69.63a81.285,81.285,0,0,1,4.8-12.932c.37-1.229.767-2.369,1.2-3.417s.831-2.185,1.2-3.418a14.63,14.63,0,0,0,1.478-3.14,14.635,14.635,0,0,1,1.478-3.141,18.571,18.571,0,0,0-1.57,3.141,18.942,18.942,0,0,1-1.57,3.14,24.918,24.918,0,0,1-1.293,3.418q-.741,1.572-1.478,3.048-1.11,3.325-2.4,6.559t-2.4,6.557q-2.589,6.651-4.526,13.3t-3.972,13.3q-1.662,6.835-3.14,13.486t-2.956,13.3q-.74,3.512-1.386,6.835t-1.2,6.836q-.555,3.144-1.109,6.557t-1.108,6.559q.736-3.14,1.385-6.559T689.384,136.506Zm3.326,9.422q1.288-7.206,2.586-14.5t3.14-14.688q1.663-7.386,3.418-14.593t3.972-14.411q2.031-7.384,4.433-14.5t4.989-14.317q-3.144,7.206-5.543,14.226T705.087,87.55q-2.217,7.206-3.972,14.41t-3.6,14.778q-1.663,7.206-2.956,14.6t-2.587,14.6q-.926,7.389-1.847,14.686T688.276,175.3q.923-7.387,2.124-14.687T692.71,145.928Zm7.758,11.453q2.954-19.951,7.205-39.9,2.217-9.977,4.9-19.675t5.819-19.49l3.326-9.421,3.694-9.791,4.064-9.422,4.065-9.238L729.1,49.494,725.039,59.1l-3.695,9.606-3.51,9.421Q714.69,88.1,711.923,97.8t-4.989,19.49q-2.034,10.161-3.787,20.137t-3.233,19.951l-1.293,9.976-1.108,10.161q-.555,4.987-1.109,9.975T695.3,197.654q.553-5.169,1.2-10.161t1.385-9.975l1.108-10.161Zm2.587-39.9q.923-4.435,1.94-8.868t2.124-8.867q1.108-4.062,2.586-8.868.369-2.217.924-4.525a40,40,0,0,1,1.294-4.342,23.848,23.848,0,0,0-1.479,4.342q-.553,2.312-1.108,4.525a29.765,29.765,0,0,0-1.57,4.342q-.649,2.311-1.2,4.526-1.295,4.251-2.309,8.775t-2.31,8.775l-1.662,9.237-1.663,8.867q-.739,4.436-1.385,8.96t-1.2,9.145q.736-4.615,1.662-9.145t1.848-8.96l1.478-8.867Zm29.928-51.173a10.351,10.351,0,0,1-1.848,3.88q-.739,1.109-1.478,2.216a8.193,8.193,0,0,0-1.108,2.586,2.808,2.808,0,0,0-.37,1.109,9.447,9.447,0,0,0-.738,1.847,5.974,5.974,0,0,1-.74,2.587,19.233,19.233,0,0,0-1.016,1.94,21.447,21.447,0,0,0-.831,2.124q-.372,1.109-.646,2.217a15.938,15.938,0,0,1-.647,2.032,3.672,3.672,0,0,0-1.109,1.294q-.372.739-.738,1.477a2.975,2.975,0,0,1-.37,1.293,30.131,30.131,0,0,0-1.663,2.587,10.81,10.81,0,0,0-1.108,2.771c-.494.248-.647.554-.462.923a1.407,1.407,0,0,1,.092,1.109,9.473,9.473,0,0,0-.646,1.755q-.278,1.017-.647,2.125a2.031,2.031,0,0,0-1.478,2.032,8.943,8.943,0,0,1-.924,4.063,9.953,9.953,0,0,0-.554,1.941,10.094,10.094,0,0,1-.554,1.939,6.961,6.961,0,0,0-.462,2.033,4.665,4.665,0,0,1-.646,2.032v1.108a5.478,5.478,0,0,0,.739-.554,9.518,9.518,0,0,0,1.755-.924,9.6,9.6,0,0,1,1.755-.923,22.223,22.223,0,0,1,1.847-1.663,22.122,22.122,0,0,0,1.848-1.663,30.173,30.173,0,0,0,4.618-3.695q1.663-1.476,3.141-3.048t2.955-3.048q2.031-2.031,3.787-4.157t3.788-4.156a55.621,55.621,0,0,0,3.51-4.711,53.143,53.143,0,0,1,3.7-4.895q.553-.924,1.016-1.756c.305-.554.646-1.137,1.015-1.755q1.477-3.325,3.141-6.558t3.326-6.558q.367-.922.831-1.94t.831-1.94q.923-3.14,1.94-6t2.309-6q.923-2.584,1.755-5.265a33.269,33.269,0,0,0,1.2-5.45,5.188,5.188,0,0,0,.37-1.939,6.674,6.674,0,0,1,.369-2.125,38.417,38.417,0,0,1,1.109-5.172q.735-2.586,1.662-5.173a31.119,31.119,0,0,0,1.016-5.08q.278-2.494.647-5.081a16.356,16.356,0,0,1-.185-2.309V13.654a14.7,14.7,0,0,0-.739-1.847q-1.481-1.109-2.863-2.032a9,9,0,0,0-3.233-1.294,12.726,12.726,0,0,0-2.4.186c-.494.248-.956.461-1.385.646s-.956.4-1.571.647a12.434,12.434,0,0,0-1.94,1.477,4.806,4.806,0,0,0-1.385,2.033.723.723,0,0,1-.555.739,7.789,7.789,0,0,0-1.477,3.694,3.822,3.822,0,0,0-.277,1.848,2.317,2.317,0,0,1-.832,1.848v.553a3.391,3.391,0,0,1,0,1.571,6.335,6.335,0,0,1-.369,1.016q-.373,1.663-.739,3.233a5.488,5.488,0,0,1-1.848,2.863.65.65,0,0,0-.092.555.662.662,0,0,1-.092.553,10.957,10.957,0,0,0-.185,2.4,12.389,12.389,0,0,1-.924,2.217,4.964,4.964,0,0,1-.923,1.293,7.969,7.969,0,0,0-.555,1.386,4.286,4.286,0,0,1-.554,1.2c-.248.619-.525,1.233-.831,1.848a15.245,15.245,0,0,0-.831,2.032,3.741,3.741,0,0,0-.74,2.033,4.614,4.614,0,0,0-.461,1.292,2.109,2.109,0,0,1-.647,1.109c-.369,0-.554.248-.554.739a3.04,3.04,0,0,1-.924,2.955,3.239,3.239,0,0,0-.647,1.017,3.5,3.5,0,0,0-.276,1.386,12.282,12.282,0,0,0-.278,1.477,1.85,1.85,0,0,1-.462,1.108q-.553,1.11-1.108,2.217a4.929,4.929,0,0,0-.554,2.217.73.73,0,0,1-.093.462.376.376,0,0,0-.092.277,13.109,13.109,0,0,0-.924,1.848Q733.349,65.384,732.983,66.305Zm38.61-39.9q-1.108,4.806-2.494,9.791t-2.863,9.791q-1.663,4.989-3.6,9.607t-4.157,9.237q-2.215,4.806-4.71,9.329t-5.081,8.96q-2.589,4.434-5.634,8.867t-6.189,8.683a92.137,92.137,0,0,0,6.651-8.59q2.952-4.338,5.726-8.591,2.772-4.615,5.266-9.051t4.71-9.238q2.031-4.8,3.972-9.513t3.6-9.514a88.855,88.855,0,0,0,2.771-9.792Q770.67,31.39,771.593,26.4Zm.739,16.073q-.927,3.143-2.032,6.1t-2.4,6.1q-2.4,6.47-4.988,12.009-1.481,2.957-2.956,5.911T757,78.313q-1.664,2.957-3.326,5.819t-3.51,5.45a65.365,65.365,0,0,0,3.787-5.357q1.754-2.772,3.6-5.727,1.662-2.772,3.141-5.635t2.955-6q1.29-2.952,2.494-5.912t2.494-6.1q1.109-2.953,2.124-6.1A46.893,46.893,0,0,0,772.332,42.474Z"/><path class="cls-1" d="M830.524,169.574a6.493,6.493,0,0,1-.184,4.064,1.278,1.278,0,0,1-.093.554.646.646,0,0,0,.093.555,1.7,1.7,0,0,1-.185,1.293,6.4,6.4,0,0,0-.37,2.032,2.049,2.049,0,0,0-.184.923,1.257,1.257,0,0,1-.37.924q-.927,1.848-1.848,3.695t-1.847,3.695a10.654,10.654,0,0,1-.831,1.663q-.464.739-1.016,1.662l-2.771,3.88a4.348,4.348,0,0,0-.647.831c-.184.309-.4.646-.646,1.016a16.612,16.612,0,0,0-1.386,2.033,17.238,17.238,0,0,1-1.385,2.031,23.989,23.989,0,0,0-1.755,2.4,9.64,9.64,0,0,1-1.94,2.217,7.243,7.243,0,0,0-.924,1.108,7.416,7.416,0,0,1-.924,1.109,16.269,16.269,0,0,1-3.51,2.77l-2.771,2.218q-.925.739-1.94,1.478a11.923,11.923,0,0,1-2.309,1.293,10.4,10.4,0,0,1-2.309.831q-1.2.278-2.494.646c-.987.249-2,.462-3.048.648s-2.064.4-3.048.646a17.942,17.942,0,0,1-4.988-.37,19.41,19.41,0,0,1-7.205-3.141,25.784,25.784,0,0,1-6.466-5.172h-.369a4.65,4.65,0,0,0-.185,1.663L765.5,200.056a9.3,9.3,0,0,0,.37-2.586,22.312,22.312,0,0,0-.185-2.772q-.368-2.215-.554-4.526a28.258,28.258,0,0,1,0-4.526,5.633,5.633,0,0,0,.092-1.754,16.052,16.052,0,0,1-.092-1.756q0-1.845.185-3.695t.554-3.879q.186-1.478.369-2.771t.554-2.771q.374-1.478.739-2.864c.249-.924.494-1.876.739-2.863q.373-1.29.832-2.587c.308-.859.586-1.723.831-2.586a10.6,10.6,0,0,1,1.108-3.141L772.7,151.1a4.3,4.3,0,0,1,.739-1.109,20.006,20.006,0,0,0,1.663-2.308q.735-1.2,1.478-2.5.921-1.108,1.662-2.125t1.663-2.124a12.4,12.4,0,0,1,2.032-2.585,4.933,4.933,0,0,1,.923-1.294l1.109-1.109,2.771-2.77c.37-.37.768-.74,1.2-1.109s.892-.739,1.385-1.108a2.117,2.117,0,0,0,.555-.37l.554-.554q.923-.736,1.755-1.478c.554-.491,1.137-.985,1.755-1.478a10.377,10.377,0,0,1,1.293-.554c.246-.122.522-.246.831-.37s.583-.245.832-.369a2.6,2.6,0,0,1,1.108-.185,1.519,1.519,0,0,1,.647-.185,1.484,1.484,0,0,0,.646-.185,22.973,22.973,0,0,1,5.912-.738,8.648,8.648,0,0,1,1.663-.186h1.662a6.837,6.837,0,0,1,1.94-.091,4.577,4.577,0,0,1,1.94.646,2.552,2.552,0,0,0,1.108.185,2.206,2.206,0,0,1,1.478,1.108,7.527,7.527,0,0,1,.554,2.587,11.041,11.041,0,0,0,.554,3.51,3.4,3.4,0,0,1,.278,1.662q-.1.741-.278,1.663l-.554,3.88a8.344,8.344,0,0,0-.277,1.016,9.013,9.013,0,0,1-.277,1.015,3.452,3.452,0,0,0-.369,1.848,6.5,6.5,0,0,1-.37,2.032q-.186,1.294-.369,2.4a14.672,14.672,0,0,1-.555,2.217,11.766,11.766,0,0,1-1.385,3.973,15.657,15.657,0,0,1-2.494,3.232,4.765,4.765,0,0,0-1.016.924,4.782,4.782,0,0,1-1.016.924c-.248,0-.369.063-.369.185a2.259,2.259,0,0,1-1.2,1.292,3.112,3.112,0,0,0-1.385,1.293,10.8,10.8,0,0,0-1.386.832,7.473,7.473,0,0,1-1.57.832q-1.109.553-2.309,1.015c-.8.31-1.57.648-2.309,1.017a13.3,13.3,0,0,1-3.141,0,17.546,17.546,0,0,0-4.249-.555q-1.294-.181-1.662.739c-.249.618-.462,1.2-.647,1.755a14.284,14.284,0,0,0-.462,1.755q-.372,1.481-.554,2.679c-.124.8-.309,1.694-.554,2.679a1.077,1.077,0,0,1-.185.739q-.186.372-.37.831a2.259,2.259,0,0,0-.184.832,6.457,6.457,0,0,0,.184,1.847V179a9.148,9.148,0,0,0-.277,2.864,9.259,9.259,0,0,1-.277,2.864v.184a3.881,3.881,0,0,0,0,3.325,5.485,5.485,0,0,1,.185,2.4,9.9,9.9,0,0,1-.554,2.032.534.534,0,0,0-.185.37v.369a3.663,3.663,0,0,1,.554,3.325,5.373,5.373,0,0,0,.093,2.217,8.481,8.481,0,0,1,.277,2.032c0,.249.06.37.184.37a14.691,14.691,0,0,1,.555,1.478.965.965,0,0,0,.369.462,1.035,1.035,0,0,1,.37.462,1.523,1.523,0,0,1,.184.646,1.474,1.474,0,0,0,.185.647,1.843,1.843,0,0,0,.831.738,1.23,1.23,0,0,1,.647.924,2.264,2.264,0,0,0,.554.924c.246.248.491.494.739.739.37.248.707.493,1.016.739s.583.494.832.739a.848.848,0,0,1,.369.092,1.239,1.239,0,0,0,.554.092,4.447,4.447,0,0,0,1.478.462q.736.1,1.663.278a1.236,1.236,0,0,0,.831.092.891.891,0,0,1,.832.277,5.253,5.253,0,0,0,3.509-.369c.616-.37,1.17-.676,1.663-.924a3.234,3.234,0,0,0,1.293-1.293.537.537,0,0,1,.37-.185.532.532,0,0,0,.369-.184,4.336,4.336,0,0,0,1.109-.74.326.326,0,0,1,.369-.369q1.109-.922,2.494-2.309t2.309-2.5l6.1-7.758q1.662-2.217,3.14-4.434a44.581,44.581,0,0,0,2.771-4.8q.923-1.662,1.756-3.232t1.754-3.418q.923-2.031,1.94-4.064t1.94-4.064Zm-55.606-13.117q1.29-3.693,2.863-7.3a37.878,37.878,0,0,1,3.788-6.743,36.988,36.988,0,0,0-4.065,6.651,73.552,73.552,0,0,0-2.956,7.2,66.894,66.894,0,0,0-3.325,15.149q-.368,3.7-.554,7.574t-.185,7.76q.186,3.7.37,7.481t.554,7.667q-.182-3.88-.277-7.667t-.093-7.481q0-3.88.185-7.667t.554-7.667A73.625,73.625,0,0,1,774.918,156.457Zm1.663,6.651a37.611,37.611,0,0,1,1.016-4.433q.645-2.219,1.385-4.435a42.961,42.961,0,0,0-1.663,4.249q-.739,2.218-1.292,4.434a73.244,73.244,0,0,0-1.664,9.053,27.3,27.3,0,0,0-.369,4.526q0,2.311-.185,4.525,0,2.4.093,4.711t.277,4.527v-4.527q0-2.307.184-4.711,0-2.215.185-4.525t.555-4.526q.182-2.217.554-4.434T776.581,163.108Zm11.269-4.8a.931.931,0,0,0,.369,1.108,1.623,1.623,0,0,0,.739.185,3.22,3.22,0,0,1,1.847-.185,9.319,9.319,0,0,0,1.848.185c.984,0,1.784-.029,2.4-.092a14.674,14.674,0,0,0,1.755-.277,6.691,6.691,0,0,0,1.571-.554,16.64,16.64,0,0,0,2.032-1.294,17.233,17.233,0,0,0,5.173-5.173q1.107-1.843,2.032-3.787a15.612,15.612,0,0,0,1.293-4.341.808.808,0,0,1,.092-.369.823.823,0,0,0,.092-.37,23.978,23.978,0,0,0,.555-8.867,11.472,11.472,0,0,0-1.663-4.434c-.248-.245-.433-.37-.554-.37a10.82,10.82,0,0,0-1.847-.554,9.594,9.594,0,0,0-1.848-.184,5.81,5.81,0,0,0-4.064.738.163.163,0,0,1-.185.185,5.637,5.637,0,0,0-2.956,1.478l-2.216,2.217a1.515,1.515,0,0,0-.555.924,12.912,12.912,0,0,1-.739,1.57q-.372.649-.739,1.386a12.2,12.2,0,0,1-1.293,2.586,2.816,2.816,0,0,0-.369,1.108,4.473,4.473,0,0,1-.185,1.2,4.366,4.366,0,0,0-.185,1.2q-.372,1.482-.554,2.679c-.124.8-.248,1.694-.37,2.679q-.186,1.109-.369,2.217a6.653,6.653,0,0,0,0,2.217,16.273,16.273,0,0,1-.092,1.755,6.9,6.9,0,0,1-.462,1.755,3.473,3.473,0,0,0-.277.738A3.808,3.808,0,0,1,787.85,158.305Z"/></svg>